<?xml version="1.0" standalone="no"?>
<!DOCTYPE svg PUBLIC "-//W3C//DTD SVG 20010904//EN"
 "http://www.w3.org/TR/2001/REC-SVG-20010904/DTD/svg10.dtd">
<svg version="1.0" xmlns="http://www.w3.org/2000/svg"
 width="310.000000pt" height="310.000000pt" viewBox="0 0 310.000000 310.000000"
 preserveAspectRatio="xMidYMid meet">
<metadata>
Created by potrace 1.11, written by Peter Selinger 2001-2013
</metadata>
<g transform="translate(0.000000,310.000000) scale(0.100000,-0.100000)"
fill="#000000" stroke="none">
<path d="M1405 2903 c-529 -59 -986 -431 -1148 -933 -46 -142 -61 -244 -62
-410 0 -249 38 -415 144 -624 133 -262 345 -472 610 -606 73 -36 233 -94 288
-104 14 -3 52 -11 82 -18 91 -19 384 -16 486 6 145 32 197 48 314 103 413 191
709 584 777 1033 16 99 10 357 -9 450 -31 146 -85 303 -134 382 -13 21 -23 40
-23 44 0 23 -142 206 -221 285 -255 255 -594 396 -950 396 -68 0 -137 -2 -154
-4z m245 -148 c101 -7 133 -13 216 -36 213 -58 385 -159 544 -319 194 -194
301 -417 345 -714 13 -88 6 -250 -15 -366 -84 -463 -472 -859 -936 -955 -410
-84 -814 36 -1109 330 -198 197 -305 417 -350 720 -7 50 -7 215 0 275 61 486
407 893 872 1024 105 30 303 58 348 49 6 -1 44 -4 85 -8z"/>
<path d="M1546 2400 c-3 -8 -12 -33 -19 -55 -14 -40 -14 -40 -66 -40 -28 0
-51 -3 -51 -6 0 -4 18 -19 40 -34 22 -15 40 -28 40 -29 0 0 -7 -23 -15 -50 -8
-27 -14 -51 -12 -52 2 -2 23 10 47 26 l43 29 44 -30 c48 -33 52 -27 29 38
l-14 39 40 28 c21 15 37 30 34 33 -2 3 -26 6 -52 7 l-48 1 -17 55 c-10 34 -19
49 -23 40z"/>
<path d="M1188 2251 c-14 -36 -19 -39 -47 -36 -17 2 -33 0 -36 -6 -4 -5 -2 -9
3 -9 4 0 18 -9 30 -20 21 -19 21 -23 7 -55 -16 -41 -16 -41 27 -15 32 19 32
19 66 -1 32 -18 34 -18 29 -2 -3 10 -9 27 -12 39 -5 16 1 26 27 42 32 21 28
26 -20 22 -17 -1 -26 8 -41 39 l-18 41 -15 -39z"/>
<path d="M1907 2250 c-13 -34 -19 -40 -40 -36 -40 7 -50 -8 -16 -28 20 -12 28
-23 25 -33 -4 -8 -9 -27 -13 -41 l-6 -26 34 21 33 22 33 -20 c35 -22 39 -17
23 27 -10 24 -7 30 21 54 l33 27 -38 -2 c-35 -2 -40 1 -56 37 l-17 38 -16 -40z"/>
<path d="M901 2137 c-6 -16 -11 -33 -11 -38 0 -5 -19 -9 -42 -9 l-43 -1 31
-27 c31 -26 31 -28 18 -65 l-13 -38 34 21 35 22 36 -21 c30 -18 35 -19 30 -5
-19 50 -17 61 13 87 l31 26 -42 3 c-37 3 -43 6 -54 38 l-12 35 -11 -28z"/>
<path d="M2202 2128 c-7 -30 -12 -33 -51 -36 l-44 -3 34 -28 c31 -26 33 -30
21 -55 -19 -43 -14 -49 20 -25 l31 23 38 -22 38 -22 -14 39 c-13 39 -13 40 18
65 l32 25 -43 1 c-39 0 -43 2 -49 30 -8 43 -21 46 -31 8z"/>
<path d="M1511 1711 c-57 -50 -23 -145 52 -145 41 0 72 23 82 61 19 75 -76
134 -134 84z"/>
<path d="M822 1593 c-18 -7 -42 -58 -37 -81 11 -60 72 -89 120 -58 26 17 42
43 39 64 -1 6 -2 19 -3 27 -3 39 -72 67 -119 48z"/>
<path d="M2217 1588 c-24 -19 -38 -64 -27 -92 11 -30 47 -56 78 -56 30 0 82
51 77 76 -2 10 -4 24 -4 31 -3 41 -87 69 -124 41z"/>
<path d="M1455 1466 c-77 -78 -154 -117 -233 -117 -82 0 -157 29 -221 88 l-25
22 -27 -24 c-16 -13 -33 -25 -39 -27 -11 -3 83 -359 101 -383 8 -11 1094 -13
1105 -3 3 4 31 91 60 195 39 135 51 189 42 192 -6 2 -23 15 -36 28 -24 24 -24
24 -46 5 -55 -50 -138 -89 -206 -95 -81 -8 -202 52 -275 135 -37 42 -43 45
-90 45 -48 0 -52 -3 -110 -61z"/>
<path d="M1026 963 c15 -62 -26 -58 540 -58 l517 0 13 35 c7 19 13 38 13 43 1
4 -244 7 -544 7 l-545 0 6 -27z"/>
</g>
</svg>
