<?xml version="1.0" encoding="utf-8"?>
<!-- Generator: Adobe Illustrator 18.0.0, SVG Export Plug-In . SVG Version: 6.00 Build 0)  -->
<!DOCTYPE svg PUBLIC "-//W3C//DTD SVG 1.1//EN" "http://www.w3.org/Graphics/SVG/1.1/DTD/svg11.dtd">
<svg version="1.1" id="Camada_1" xmlns="http://www.w3.org/2000/svg" xmlns:xlink="http://www.w3.org/1999/xlink" x="0px" y="0px"
	 viewBox="0 0 118 32" enable-background="new 0 0 118 32" xml:space="preserve">
<path fill-rule="evenodd" clip-rule="evenodd" fill="#1C8CBC" d="M109,32c-5,0-9-4-9-9c0-5,4-9,9-9c5,0,9,4,9,9
	C118,28,114,32,109,32z M109,16c-3.9,0-7,3.1-7,7c0,3.9,3.1,7,7,7c3.9,0,7-3.1,7-7C116,19.1,112.9,16,109,16z M112,24h-2v2
	c0,0.6-0.4,1-1,1s-1-0.4-1-1v-2h-2c-0.6,0-1-0.4-1-1c0-0.6,0.4-1,1-1h2v-2c0-0.6,0.4-1,1-1s1,0.4,1,1v2h2c0.6,0,1,0.4,1,1
	C113,23.6,112.6,24,112,24z M112,10h-6c-1.1,0-2-0.9-2-2V2H2v28h98.5c0.6,0.8,1.4,1.4,2.2,2H2c-1.1,0-2-0.9-2-2V2c0-1.1,0.9-2,2-2
	h102h2l8,8v2v3v0.2c-0.6-0.3-1.3-0.6-2-0.8V10z M106,2v6h6L106,2z"/>
<g>
	<path fill="#1B72AE" d="M22.3,17.7l0.2,1l0.1,0l0.2-1l1.3-5.6h3.1l-3.1,9.5h-3l-3.1-9.5h3.1L22.3,17.7z"/>
	<path fill="#1B72AE" d="M31.9,21.8c-1.4,0-2.5-0.4-3.4-1.3c-0.8-0.9-1.3-2-1.3-3.3v-0.3c0-1.4,0.4-2.6,1.1-3.5
		c0.8-0.9,1.8-1.4,3.3-1.4c1.3,0,2.3,0.4,3,1.2s1.1,1.8,1.1,3.1v1.6h-5.4l0,0.1c0.1,0.5,0.3,0.9,0.6,1.2s0.8,0.5,1.3,0.5
		c0.6,0,1,0,1.3-0.1c0.3-0.1,0.8-0.2,1.3-0.5l0.7,1.8c-0.4,0.3-1,0.6-1.6,0.8C33.4,21.7,32.7,21.8,31.9,21.8z M31.7,14.2
		c-0.4,0-0.7,0.2-1,0.5s-0.3,0.7-0.4,1.2l0,0h2.6v-0.2c0-0.5-0.1-0.8-0.3-1.1S32.1,14.2,31.7,14.2z"/>
	<path fill="#1B72AE" d="M39.9,12.1v9.6c0,1.2-0.3,2.1-1,2.7c-0.6,0.6-1.5,1-2.7,1c-0.3,0-0.5,0-0.7,0s-0.4-0.1-0.7-0.1l0.1-2.2
		c0.2,0,0.3,0.1,0.4,0.1c0.1,0,0.3,0,0.5,0c0.3,0,0.6-0.1,0.8-0.4c0.2-0.2,0.3-0.6,0.3-1.1v-9.6H39.9z M39.8,9.9h-3v-2h3V9.9z"/>
	<path fill="#1B72AE" d="M46.7,21.6c-0.1-0.2-0.2-0.3-0.2-0.5s-0.1-0.4-0.2-0.6c-0.3,0.4-0.6,0.7-1,0.9s-0.9,0.3-1.5,0.3
		c-0.9,0-1.6-0.3-2.2-0.8c-0.6-0.5-0.8-1.2-0.8-2.1c0-0.9,0.4-1.7,1.1-2.2c0.7-0.5,1.8-0.8,3.2-0.8h1.1v-0.7c0-0.4-0.1-0.7-0.3-0.9
		s-0.5-0.3-0.9-0.3c-0.3,0-0.6,0.1-0.8,0.2c-0.2,0.2-0.3,0.4-0.3,0.8l-2.9,0l0-0.1c0-0.9,0.3-1.6,1.1-2.2s1.8-0.9,3-0.9
		c1.2,0,2.1,0.3,2.9,0.9c0.7,0.6,1.1,1.4,1.1,2.5v3.6c0,0.5,0,1,0.1,1.4s0.2,0.9,0.4,1.3L46.7,21.6z M44.7,19.7
		c0.3,0,0.6-0.1,0.8-0.2s0.4-0.3,0.6-0.5v-1.5H45c-0.5,0-0.8,0.1-1,0.3s-0.3,0.5-0.3,0.9c0,0.3,0.1,0.5,0.3,0.7
		C44.2,19.6,44.4,19.7,44.7,19.7z"/>
	<path fill="#1B72AE" d="M57.3,12.1l0.1,1.3c0.3-0.5,0.7-0.8,1.1-1.1s1-0.4,1.6-0.4c0.6,0,1.1,0.1,1.5,0.4s0.8,0.7,1,1.2
		c0.3-0.5,0.7-0.9,1.1-1.2s1-0.4,1.6-0.4c0.9,0,1.7,0.3,2.2,1s0.8,1.6,0.8,2.9v5.8h-3v-5.8c0-0.6-0.1-1-0.3-1.3
		c-0.2-0.2-0.5-0.3-0.9-0.3c-0.3,0-0.5,0.1-0.8,0.2c-0.2,0.1-0.4,0.2-0.6,0.4c0,0.1,0,0.2,0,0.3s0,0.1,0,0.2v6.3h-3v-5.8
		c0-0.6-0.1-1-0.3-1.3s-0.5-0.3-0.9-0.3c-0.3,0-0.5,0.1-0.7,0.2c-0.2,0.1-0.4,0.2-0.6,0.4v6.8h-3v-9.5H57.3z"/>
	<path fill="#1B72AE" d="M75.1,21.6c-0.1-0.2-0.2-0.3-0.2-0.5s-0.1-0.4-0.2-0.6c-0.3,0.4-0.6,0.7-1,0.9s-0.9,0.3-1.5,0.3
		c-0.9,0-1.6-0.3-2.2-0.8c-0.6-0.5-0.8-1.2-0.8-2.1c0-0.9,0.4-1.7,1.1-2.2C71,16.3,72,16,73.5,16h1.1v-0.7c0-0.4-0.1-0.7-0.3-0.9
		s-0.5-0.3-0.9-0.3c-0.3,0-0.6,0.1-0.8,0.2c-0.2,0.2-0.3,0.4-0.3,0.8l-2.9,0l0-0.1c0-0.9,0.3-1.6,1.1-2.2s1.8-0.9,3-0.9
		c1.2,0,2.1,0.3,2.9,0.9c0.7,0.6,1.1,1.4,1.1,2.5v3.6c0,0.5,0,1,0.1,1.4s0.2,0.9,0.4,1.3L75.1,21.6z M73.1,19.7
		c0.3,0,0.6-0.1,0.8-0.2s0.4-0.3,0.6-0.5v-1.5h-1.1c-0.5,0-0.8,0.1-1,0.3s-0.3,0.5-0.3,0.9c0,0.3,0.1,0.5,0.3,0.7
		C72.6,19.6,72.8,19.7,73.1,19.7z"/>
	<path fill="#1B72AE" d="M81.9,9.9h-3v-2h3V9.9z M81.9,21.6h-3v-9.5h3V21.6z"/>
	<path fill="#1B72AE" d="M88.3,19c0-0.2-0.1-0.4-0.4-0.6s-0.8-0.4-1.5-0.5c-1.1-0.2-1.9-0.6-2.5-1s-0.8-1.1-0.8-1.9
		c0-0.8,0.4-1.5,1.1-2.1s1.7-0.9,2.9-0.9c1.3,0,2.3,0.3,3,0.8s1.1,1.3,1.1,2.2l0,0.1h-2.9c0-0.4-0.1-0.7-0.3-0.9s-0.5-0.3-0.9-0.3
		c-0.3,0-0.6,0.1-0.8,0.3s-0.3,0.4-0.3,0.7c0,0.3,0.1,0.5,0.4,0.6s0.7,0.3,1.5,0.5c1.2,0.2,2,0.6,2.6,1c0.6,0.5,0.8,1.1,0.8,1.9
		c0,0.9-0.4,1.6-1.1,2.1c-0.8,0.6-1.8,0.8-3,0.8c-1.3,0-2.3-0.3-3.1-1c-0.8-0.7-1.1-1.4-1.1-2.2l0-0.1h2.7c0,0.5,0.1,0.8,0.4,1
		c0.3,0.2,0.6,0.3,1.1,0.3c0.4,0,0.7-0.1,0.9-0.2S88.3,19.3,88.3,19z"/>
</g>
</svg>
