<?xml version="1.0" encoding="utf-8"?>
<!-- Generator: Adobe Illustrator 18.0.0, SVG Export Plug-In . SVG Version: 6.00 Build 0)  -->
<!DOCTYPE svg PUBLIC "-//W3C//DTD SVG 1.1//EN" "http://www.w3.org/Graphics/SVG/1.1/DTD/svg11.dtd">
<svg version="1.1" id="Camada_1" xmlns="http://www.w3.org/2000/svg" xmlns:xlink="http://www.w3.org/1999/xlink" x="0px" y="0px"
	 viewBox="-1.2 203 844.3 189.2" enable-background="new -1.2 203 844.3 189.2" xml:space="preserve">
<g>
	<path fill="#453F40" d="M434,354.4c9.5,7.1,21.3,11.8,35.5,11.8c18.9,0,37.8-11.8,37.8-30.7c0-11.8-7.1-21.3-23.6-30.7
		c-21.3-11.8-33.1-26-33.1-42.6c0-30.7,26-49.7,56.8-49.7c16.6,0,28.4,4.7,35.5,9.5l-7.1,16.6c-4.7-2.4-16.6-7.1-28.4-7.1
		c-21.3,0-33.1,14.2-33.1,28.4c0,14.2,9.5,21.3,26,30.7c21.3,11.8,33.1,23.6,33.1,44.9c0,28.4-23.6,52-61.5,52
		c-16.6,0-33.1-4.7-40.2-11.8L434,354.4z"/>
	<path fill="#453F40" d="M535.6,380.4l23.6-120.6h21.3l-23.6,120.6H535.6z M561.7,224.3c0-7.1,7.1-14.2,14.2-14.2
		s11.8,4.7,11.8,14.2c0,7.1-7.1,14.2-14.2,14.2S561.7,233.8,561.7,224.3"/>
	<path fill="#453F40" d="M639.7,226.7l-7.1,33.1H661l-2.4,16.6h-28.4l-11.8,59.1c0,7.1-2.4,14.2-2.4,18.9c0,7.1,2.4,11.8,11.8,11.8
		c2.4,0,7.1,0,9.5,0v16.6c-4.7,2.4-9.5,2.4-16.6,2.4c-18.9,0-26-11.8-26-23.6c0-7.1,0-14.2,2.4-23.6l11.8-61.5h-16.6l2.4-16.6h16.6
		l4.7-28.4L639.7,226.7z"/>
	<path fill="#453F40" d="M739,373.3c-9.5,4.7-23.6,9.5-40.2,9.5c-33.1,0-47.3-21.3-47.3-49.7c0-37.8,26-78,66.2-78
		c23.6,0,35.5,14.2,35.5,30.7c0,30.7-35.5,40.2-80.4,40.2c0,4.7,0,16.6,2.4,23.6c4.7,11.8,14.2,16.6,26,16.6c14.2,0,26-4.7,33.1-9.5
		L739,373.3z M717.7,274c-18.9,0-35.5,18.9-40.2,37.8c33.1,0,59.1-4.7,59.1-23.6C734.3,278.7,727.2,274,717.7,274"/>
	<path fill="#453F40" d="M760.3,359.1c4.7,2.4,16.6,7.1,26,7.1c14.2,0,23.6-9.5,23.6-18.9s-4.7-14.2-16.6-21.3
		c-14.2-7.1-21.3-18.9-21.3-30.7c0-21.3,18.9-37.8,44.9-37.8c11.8,0,21.3,2.4,26,7.1l-4.7,16.6c-4.7-2.4-11.8-4.7-21.3-4.7
		c-11.8,0-21.3,7.1-21.3,18.9c0,9.5,4.7,14.2,16.6,21.3c14.2,7.1,23.6,18.9,23.6,30.7c0,26-21.3,40.2-47.3,40.2
		c-14.2,0-23.6-4.7-30.7-7.1L760.3,359.1z"/>
	<path fill="#DE1862" d="M164.4,380.4c-16.6,4.7-44.9,11.8-70.9,11.8s-49.7-7.1-66.2-18.9s-28.4-33.1-28.4-61.5
		c0-35.5,14.2-61.5,40.2-80.4c23.6-16.6,54.4-26,89.9-26c26,0,49.7,4.7,56.8,9.5l-14.2,40.2c-9.5-4.7-26-9.5-44.9-9.5
		c-18.9,0-35.5,4.7-47.3,11.8c-16.6,9.5-26,28.4-26,49.7c0,30.7,21.3,44.9,49.7,44.9c9.5,0,16.6-2.4,18.9-2.4l4.7-28.4H98.1
		l7.1-37.8h75.7L164.4,380.4z"/>
	<path fill="#DE1862" d="M251.9,392.2c-49.7,0-85.1-30.7-85.1-82.8c0-30.7,11.8-59.1,30.7-78s47.3-28.4,78-28.4
		c49.7,0,85.1,28.4,85.1,82.8c0,30.7-11.8,59.1-30.7,75.7C311,380.4,285,392.2,251.9,392.2L251.9,392.2L251.9,392.2z M259,352
		c11.8,0,23.6-4.7,30.7-14.2c11.8-11.8,18.9-30.7,18.9-49.7c0-26-9.5-47.3-37.8-47.3c-11.8,0-23.6,4.7-33.1,14.2
		c-11.8,11.8-18.9,30.7-18.9,49.7C218.7,335.5,232.9,352,259,352L259,352z"/>
	<path fill="#DE1862" d="M379.6,392.2c-14.2,0-26-9.5-26-26c0-18.9,11.8-33.1,33.1-33.1c14.2,0,26,9.5,26,26
		C412.7,380.4,398.5,392.2,379.6,392.2L379.6,392.2L379.6,392.2z M372.5,326l14.2-120.6h49.7L405.6,326H372.5z"/>
</g>
</svg>
