<?xml version="1.0" encoding="utf-8"?>
<!-- Generator: Adobe Illustrator 18.0.0, SVG Export Plug-In . SVG Version: 6.00 Build 0)  -->
<!DOCTYPE svg PUBLIC "-//W3C//DTD SVG 1.1//EN" "http://www.w3.org/Graphics/SVG/1.1/DTD/svg11.dtd">
<svg version="1.1" id="Camada_1" xmlns="http://www.w3.org/2000/svg" xmlns:xlink="http://www.w3.org/1999/xlink" x="0px" y="0px"
	 viewBox="0 0 21 21" enable-background="new 0 0 21 21" xml:space="preserve">
<path fill-rule="evenodd" clip-rule="evenodd" fill="#19A4C4" d="M21,10.5c0,0.4-0.3,0.7-0.7,0.7c-0.2,0-0.3-0.1-0.5-0.2l0,0
	l-9.4-9.4L1.1,11l0,0c-0.1,0.1-0.3,0.2-0.5,0.2c-0.4,0-0.7-0.3-0.7-0.7c0-0.2,0.1-0.3,0.2-0.5l0,0L10,0.2l0,0
	C10.2,0.1,10.3,0,10.5,0s0.3,0.1,0.5,0.2l0,0l9.8,9.8l0,0C20.9,10.2,21,10.3,21,10.5z"/>
<path fill-rule="evenodd" clip-rule="evenodd" fill="#19A4C4" d="M17.1,21h-5.3H9.2H3.9c-0.7,0-1.3-0.6-1.3-1.3v-7.9
	c0-0.7,0.6-1.3,1.3-1.3v9.2h2.6v-6.6c0-0.7,0.6-1.3,1.3-1.3h5.2c0.7,0,1.3,0.6,1.3,1.3v6.6h2.6v-9.2c0.7,0,1.3,0.6,1.3,1.3v7.9
	C18.4,20.4,17.8,21,17.1,21z M13.1,13.1H7.9v6.6h5.2V13.1z"/>
</svg>
