<?xml version="1.0" encoding="utf-8"?>
<!-- Generator: Adobe Illustrator 18.0.0, SVG Export Plug-In . SVG Version: 6.00 Build 0)  -->
<!DOCTYPE svg PUBLIC "-//W3C//DTD SVG 1.1//EN" "http://www.w3.org/Graphics/SVG/1.1/DTD/svg11.dtd">
<svg version="1.1" id="Camada_1" xmlns="http://www.w3.org/2000/svg" xmlns:xlink="http://www.w3.org/1999/xlink" x="0px" y="0px"
	 viewBox="0 0 32 32" enable-background="new 0 0 32 32" xml:space="preserve">
<path fill-rule="evenodd" clip-rule="evenodd" fill="#1C8CBC" d="M30,26H16.3l-8.7,5.8l0,0C7.4,31.9,7.2,32,7,32c-0.6,0-1-0.4-1-1
	v-5H2c-1.1,0-2-0.9-2-2V2c0-1.1,0.9-2,2-2h28c1.1,0,2,0.9,2,2v22C32,25.1,31.1,26,30,26z M30,2H2v22h5c0.6,0,1,0.4,1,1v4.1l7.4-5
	l0,0c0.2-0.1,0.3-0.2,0.5-0.2h14V2z M8,17c0-0.6,0.4-1,1-1h14c0.6,0,1,0.4,1,1c0,0.6-0.4,1-1,1H9C8.4,18,8,17.6,8,17z M23,12H9
	c-0.6,0-1-0.4-1-1c0-0.6,0.4-1,1-1h14c0.6,0,1,0.4,1,1C24,11.6,23.6,12,23,12z"/>
</svg>
