<?xml version="1.0" encoding="utf-8"?>
<!-- Generator: Adobe Illustrator 18.0.0, SVG Export Plug-In . SVG Version: 6.00 Build 0)  -->
<!DOCTYPE svg PUBLIC "-//W3C//DTD SVG 1.1//EN" "http://www.w3.org/Graphics/SVG/1.1/DTD/svg11.dtd">
<svg version="1.1" id="Camada_1" xmlns="http://www.w3.org/2000/svg" xmlns:xlink="http://www.w3.org/1999/xlink" x="0px" y="0px"
	 viewBox="0 0 32 24" enable-background="new 0 0 32 24" xml:space="preserve">
<path fill-rule="evenodd" clip-rule="evenodd" fill="#1C8CBC" d="M30,24H2c-1.1,0-2-0.9-2-2V2c0-1.1,0.9-2,2-2h28c1.1,0,2,0.9,2,2
	v20C32,23.1,31.1,24,30,24z M3.4,2L16,14.6L28.6,2H3.4z M30,3.4L16.7,16.7l0,0C16.5,16.9,16.3,17,16,17c-0.3,0-0.5-0.1-0.7-0.3l0,0
	L2,3.4v17.2l6.3-6.3l1.4,1.4L3.4,22h25.2l-6.3-6.3l1.4-1.4l6.3,6.3V3.4z"/>
</svg>
