<?xml version="1.0" encoding="utf-8"?>
<!-- Generator: Adobe Illustrator 18.0.0, SVG Export Plug-In . SVG Version: 6.00 Build 0)  -->
<!DOCTYPE svg PUBLIC "-//W3C//DTD SVG 1.1//EN" "http://www.w3.org/Graphics/SVG/1.1/DTD/svg11.dtd">
<svg version="1.1" id="Camada_1" xmlns="http://www.w3.org/2000/svg" xmlns:xlink="http://www.w3.org/1999/xlink" x="0px" y="0px"
	 viewBox="0 0 12.9 28.9" enable-background="new 0 0 12.9 28.9" xml:space="preserve">
<path fill-rule="evenodd" clip-rule="evenodd" fill="#FFFFFF" d="M9.1,7.2L7.3,7.4L8,0.3l-0.6,0L9.7,0C11-0.1,11,1,11.1,2.3
	C11.1,2.3,11.1,7.1,9.1,7.2z M6.7,7.4c-2.6,0.2-3.4,2.8-3,7.4c0.3,4.6,1.5,7,4.1,6.8l-0.6,0.1l1.7,6.9l-0.6,0c-0.2,0-1,0.1-1.2,0.1
	C2.5,29.3,0.7,23,0.2,15.1C-0.4,7.3,0.5,0.8,5,0.4c0.2,0,1-0.1,1.2-0.1l0.6,0L6.1,7.4L6.7,7.4z M10,28.5l-1.7-6.9l1.8-0.1
	c2.3-0.2,2.7,4.6,2.7,4.6c0.1,1.3,0.3,2.4-1,2.5l-2.4,0.2L10,28.5z"/>
</svg>
