<?xml version="1.0" encoding="utf-8"?>
<!-- Generator: Adobe Illustrator 18.0.0, SVG Export Plug-In . SVG Version: 6.00 Build 0)  -->
<!DOCTYPE svg PUBLIC "-//W3C//DTD SVG 1.1//EN" "http://www.w3.org/Graphics/SVG/1.1/DTD/svg11.dtd">
<svg version="1.1" id="Camada_1" xmlns="http://www.w3.org/2000/svg" xmlns:xlink="http://www.w3.org/1999/xlink" x="0px" y="0px"
	 viewBox="0 0 38.1 39" enable-background="new 0 0 38.1 39" xml:space="preserve">
<path fill="#186199" d="M32.4,0c-3.1,0-5.7,2.6-5.7,5.7c0,0.6,0.1,1.2,0.3,1.8c0.3,1.1,3.2,9,4.5,12.4c-0.6,0.2-1,0.8-1,1.5
	c0,0.9,0.7,1.6,1.6,1.6c0.9,0,1.6-0.7,1.6-1.6c0,0,0-0.1,0-0.1c0-0.2,0-0.3-0.1-0.5c0,0,0-0.1-0.1-0.1c-0.1-0.1-0.1-0.2-0.2-0.3
	c-0.2-0.2-0.3-0.4-0.6-0.5c1.4-3.2,4.5-10.4,5-12.2c0.2-0.6,0.4-1.3,0.4-2C38.1,2.6,35.5,0,32.4,0z M32.5,9.4c-2,0-3.6-1.6-3.6-3.6
	c0-2,1.6-3.6,3.6-3.6c2,0,3.6,1.6,3.6,3.6C36.1,7.7,34.5,9.4,32.5,9.4z"/>
<path fill="#186199" d="M32.5,3c1.5,0,2.6,1.2,2.6,2.7c0,1.5-1.2,2.7-2.6,2.7c-1.5,0-2.6-1.2-2.6-2.7C29.9,4.2,31.1,3,32.5,3z"/>
<path fill="#186199" d="M0,12.2c0.3-0.1,6.5-1.4,11.4,2.1V6.9L0,8.2V12.2z"/>
<path fill="#186199" d="M0,36.5l11.4-1.2v-7.3L0,28.7V36.5z"/>
<path fill="#186199" d="M0,13.4v13.7l11.4-0.8V15.9C6.8,12.1,0.1,13.4,0,13.4z"/>
<path fill="#186199" d="M13,17.6v9l0.1-0.3l11.3,2.4v-4.9c-0.4,0-0.9,0-1.2,0C18.4,23.7,16.8,22,13,17.6z"/>
<path fill="#186199" d="M13,35.2L24.4,39v-8.8L13,27.8V35.2z"/>
<path fill="#186199" d="M13,15.7c0.2,0.2,0.3,0.3,0.5,0.5l0.1,0.1c4.3,5,5.4,6.4,10.8,6.1V10.7L13,6.9V15.7z"/>
<path fill="#186199" d="M25.8,39l11.4-2.5v-8.5l-11.4,2.3V39z"/>
<path fill="#186199" d="M35.6,21.3c0,1.9-1.6,3.5-3.5,3.5c-1.4,0-2.6-0.8-3.2-2.1l-3,0.8c-0.1,0-0.1,0-0.2,0v5.1l11.4-2.3v-5.9
	l-1.6,0.5C35.6,21,35.6,21.2,35.6,21.3z"/>
<path fill="#186199" d="M35.2,19.7l1.8-0.5l0.2,0v-5.7C37,13.9,35,19.4,35,19.4C35.1,19.5,35.2,19.6,35.2,19.7z"/>
<path fill="#186199" d="M28.7,21.3c0-0.8,0.3-1.4,0.7-2c0,0-2.9-6.7-3.5-7.8v10.8l2.8-0.8C28.7,21.5,28.7,21.4,28.7,21.3z"/>
</svg>
