<?xml version="1.0" encoding="utf-8"?>
<!-- Generator: Adobe Illustrator 18.0.0, SVG Export Plug-In . SVG Version: 6.00 Build 0)  -->
<!DOCTYPE svg PUBLIC "-//W3C//DTD SVG 1.1//EN" "http://www.w3.org/Graphics/SVG/1.1/DTD/svg11.dtd">
<svg version="1.1" id="Camada_1" xmlns="http://www.w3.org/2000/svg" xmlns:xlink="http://www.w3.org/1999/xlink" x="0px" y="0px"
	 viewBox="0 0 24 32" enable-background="new 0 0 24 32" xml:space="preserve">
<path fill-rule="evenodd" clip-rule="evenodd" fill="#FFFFFF" d="M12,32C10,32,0,17,0,12C0,5.4,5.4,0,12,0c6.6,0,12,5.4,12,12
	C24,16.9,14,32,12,32z M12,2C6.5,2,2,6.5,2,12c0,4.2,8.3,17,10,17c1.6,0,10-12.9,10-17C22,6.5,17.5,2,12,2z"/>
<path fill-rule="evenodd" clip-rule="evenodd" fill="#FFFFFF" d="M12,18c-3.3,0-6-2.7-6-6c0-3.3,2.7-6,6-6c3.3,0,6,2.7,6,6
	C18,15.3,15.3,18,12,18z M12,8c-2.2,0-4,1.8-4,4c0,2.2,1.8,4,4,4c2.2,0,4-1.8,4-4C16,9.8,14.2,8,12,8z"/>
</svg>
