<?xml version="1.0" encoding="utf-8"?>
<!-- Generator: Adobe Illustrator 18.0.0, SVG Export Plug-In . SVG Version: 6.00 Build 0)  -->
<!DOCTYPE svg PUBLIC "-//W3C//DTD SVG 1.1//EN" "http://www.w3.org/Graphics/SVG/1.1/DTD/svg11.dtd">
<svg version="1.1" id="Camada_1" xmlns="http://www.w3.org/2000/svg" xmlns:xlink="http://www.w3.org/1999/xlink" x="0px" y="0px"
	 viewBox="0 0 73 132.3" enable-background="new 0 0 73 132.3" xml:space="preserve">
<path fill="#1C8CBC" d="M68.7,30c0.4,2,0.6,4.1,0.6,6.2C69.3,54.3,54.6,69,36.5,69S3.7,54.3,3.7,36.2C3.7,34,3.9,32,4.3,30
	c-2.6,1.9-4.3,5-4.3,8.4v83.4c0,5.8,4.7,10.5,10.5,10.5h52.1c5.8,0,10.5-4.7,10.5-10.5V38.4C73,34.9,71.3,31.9,68.7,30z"/>
<path fill-rule="evenodd" clip-rule="evenodd" fill="#1C8CBC" d="M51.8,32.6L38.1,18.9l0,0c-0.4-0.4-1-0.7-1.6-0.7s-1.2,0.3-1.6,0.7
	l0,0L21.2,32.6l0,0c-0.4,0.4-0.7,1-0.7,1.6c0,1.3,1,2.3,2.3,2.3c0.6,0,1.2-0.3,1.6-0.7l0,0l9.8-9.8v26.4c0,1.3,1,2.3,2.3,2.3
	s2.3-1,2.3-2.3V26l9.8,9.8l0,0c0.4,0.4,1,0.7,1.6,0.7c1.3,0,2.3-1,2.3-2.3C52.5,33.6,52.2,33,51.8,32.6L51.8,32.6z"/>
<path fill-rule="evenodd" clip-rule="evenodd" fill="#1C8CBC" d="M36.5,0C56.7,0,73,16.3,73,36.5C73,56.7,56.7,73,36.5,73
	S0,56.7,0,36.5C0,16.3,16.3,0,36.5,0z M36.5,68.4c17.6,0,31.9-14.3,31.9-31.9c0-17.6-14.3-31.9-31.9-31.9S4.6,18.9,4.6,36.5
	C4.6,54.1,18.9,68.4,36.5,68.4z"/>
<g>
	<path fill="#FFFFFF" d="M22.1,87.7l-4,9.5h-2.5l-4-9.5H14l1.3,3.1l1.5,4l1.4-3.9l1.3-3.2H22.1z"/>
	<path fill="#FFFFFF" d="M32.2,92.4c0,2.7-1.9,4.9-4.9,4.9s-4.9-2.2-4.9-4.9c0-2.7,1.9-4.9,4.9-4.9S32.2,89.7,32.2,92.4z M24.7,92.4
		c0,1.4,0.9,2.8,2.6,2.8c1.7,0,2.6-1.3,2.6-2.8c0-1.4-1-2.8-2.6-2.8C25.6,89.6,24.7,91,24.7,92.4z"/>
	<path fill="#FFFFFF" d="M35.7,83.7v13.4h-2.3V83.7H35.7z"/>
	<path fill="#FFFFFF" d="M40.7,85v2.7h2.6v2h-2.6v4.1c0,0.9,0.5,1.3,1.2,1.3c0.4,0,0.8-0.1,1.1-0.3l0.7,2c-0.7,0.3-1.2,0.4-1.9,0.4
		c-2.1,0.1-3.4-1.1-3.4-3.4v-4.1h-1.8v-2h1.8v-2.4L40.7,85z"/>
	<path fill="#FFFFFF" d="M52.2,87.7h2.2v9.4h-2.2l-0.1-1.4c-0.5,1.1-2,1.6-3.1,1.7c-2.8,0-4.9-1.7-4.9-5c0-3.3,2.2-5,4.9-4.9
		c1.3,0,2.5,0.6,3,1.5L52.2,87.7z M46.5,92.4c0,1.8,1.2,2.9,2.8,2.9c3.7,0,3.7-5.7,0-5.7C47.7,89.5,46.5,90.6,46.5,92.4z"/>
	<path fill="#FFFFFF" d="M58.2,87.7l0.2,1.1c0.7-1.2,1.7-1.3,2.7-1.3c1,0,1.9,0.4,2.4,0.9l-1.1,2c-0.5-0.4-0.9-0.6-1.7-0.6
		c-1.2,0-2.4,0.7-2.4,2.4v5H56v-9.4H58.2z"/>
	<path fill="#FFFFFF" d="M12.8,109h2.2v9.4h-2.2l-0.1-1.4c-0.5,1.1-2,1.6-3.1,1.7c-2.8,0-4.9-1.7-4.9-5c0-3.3,2.2-5,4.9-4.9
		c1.3,0,2.5,0.6,3,1.5L12.8,109z M7.2,113.7c0,1.8,1.2,2.9,2.8,2.9c3.7,0,3.7-5.7,0-5.7C8.4,110.8,7.2,111.9,7.2,113.7z"/>
	<path fill="#FFFFFF" d="M26.1,113.7c0,2.7-1.9,4.9-4.9,4.9s-4.9-2.2-4.9-4.9c0-2.7,1.9-4.9,4.9-4.9S26.1,111,26.1,113.7z
		 M18.6,113.7c0,1.4,0.9,2.8,2.6,2.8c1.7,0,2.6-1.3,2.6-2.8c0-1.4-1-2.8-2.6-2.8C19.4,110.9,18.6,112.3,18.6,113.7z"/>
	<path fill="#FFFFFF" d="M34.1,106.3v2.7h2.6v2H34v4.1c0,0.9,0.5,1.3,1.2,1.3c0.4,0,0.8-0.1,1.1-0.3l0.7,2c-0.7,0.3-1.2,0.4-1.9,0.4
		c-2.1,0.1-3.4-1.1-3.4-3.4V111H30v-2h1.8v-2.4L34.1,106.3z"/>
	<path fill="#FFFFFF" d="M47.4,113.7c0,2.7-1.9,4.9-4.9,4.9s-4.9-2.2-4.9-4.9c0-2.7,1.9-4.9,4.9-4.9S47.4,111,47.4,113.7z
		 M39.9,113.7c0,1.4,0.9,2.8,2.6,2.8s2.6-1.3,2.6-2.8c0-1.4-1-2.8-2.6-2.8C40.8,110.9,39.9,112.3,39.9,113.7z"/>
	<path fill="#FFFFFF" d="M48.7,122.4V109h2.2l0.2,1.3c0.7-1.1,2-1.5,3.1-1.5c2.9,0,4.8,2.2,4.8,4.9c0,2.8-1.7,4.9-4.8,4.9
		c-1,0-2.5-0.3-3.1-1.3v5.1H48.7z M56.6,113.7c0-1.5-1-2.7-2.7-2.7s-2.7,1.2-2.7,2.7c0,1.5,1.1,2.7,2.7,2.7S56.6,115.2,56.6,113.7z"
		/>
	<path fill="#FFFFFF" d="M69.6,113.7c0,2.7-1.9,4.9-4.9,4.9s-4.9-2.2-4.9-4.9c0-2.7,1.9-4.9,4.9-4.9S69.6,111,69.6,113.7z
		 M62.1,113.7c0,1.4,0.9,2.8,2.6,2.8c1.7,0,2.6-1.3,2.6-2.8c0-1.4-1-2.8-2.6-2.8C63,110.9,62.1,112.3,62.1,113.7z"/>
</g>
</svg>
