<?xml version="1.0" encoding="utf-8"?>
<!-- Generator: Adobe Illustrator 18.0.0, SVG Export Plug-In . SVG Version: 6.00 Build 0)  -->
<!DOCTYPE svg PUBLIC "-//W3C//DTD SVG 1.1//EN" "http://www.w3.org/Graphics/SVG/1.1/DTD/svg11.dtd">
<svg version="1.1" id="Camada_1" xmlns="http://www.w3.org/2000/svg" xmlns:xlink="http://www.w3.org/1999/xlink" x="0px" y="0px"
	 viewBox="0 0 25 25" enable-background="new 0 0 25 25" xml:space="preserve">
<path fill-rule="evenodd" clip-rule="evenodd" fill="#1B72AF" d="M25,24.2c0,0.4-0.3,0.8-0.8,0.8c-0.2,0-0.4-0.1-0.6-0.2l0,0l-5-5
	l-5.7,5l0,0c-0.1,0.1-0.3,0.2-0.5,0.2c-0.2,0-0.4-0.1-0.6-0.2l0,0l-5-5l-5.7,5l0,0C1.2,24.9,1,25,0.8,25C0.3,25,0,24.7,0,24.2v-18
	C0,6,0.1,5.8,0.3,5.7l0,0l6.3-5.5l0,0C6.7,0.1,6.8,0,7,0c0.2,0,0.4,0.1,0.6,0.2l0,0l5,5l5.7-5l0,0C18.4,0.1,18.6,0,18.7,0
	c0.2,0,0.4,0.1,0.6,0.2l0,0l5.5,5.5l0,0C24.9,5.8,25,6,25,6.3V24.2z M23.4,6.6l-4.7-4.7l-5.7,5l0,0C12.9,7,12.7,7,12.5,7
	c-0.2,0-0.4-0.1-0.6-0.2l0,0l-5-5L1.6,6.6v15.9l5-4.3l0,0C6.7,18,6.8,18,7,18c0.2,0,0.4,0.1,0.6,0.2l0,0l5,5l5.7-5l0,0
	c0.1-0.1,0.3-0.2,0.5-0.2c0.2,0,0.4,0.1,0.6,0.2l0,0l4.1,4.1V6.6z M19.5,14.8c-0.4,0-0.8-0.3-0.8-0.8V7.8c0-0.4,0.3-0.8,0.8-0.8
	c0.4,0,0.8,0.3,0.8,0.8v6.3C20.3,14.5,20,14.8,19.5,14.8z M13.3,18c-0.4,0-0.8-0.3-0.8-0.8v-6.2c0-0.4,0.3-0.8,0.8-0.8
	c0.4,0,0.8,0.3,0.8,0.8v6.2C14.1,17.6,13.7,18,13.3,18z M7,14.8c-0.4,0-0.8-0.3-0.8-0.8V7.8C6.3,7.4,6.6,7,7,7
	c0.4,0,0.8,0.3,0.8,0.8v6.3C7.8,14.5,7.5,14.8,7,14.8z"/>
</svg>
