<?xml version="1.0" encoding="utf-8"?>
<!-- Generator: Adobe Illustrator 18.0.0, SVG Export Plug-In . SVG Version: 6.00 Build 0)  -->
<!DOCTYPE svg PUBLIC "-//W3C//DTD SVG 1.1//EN" "http://www.w3.org/Graphics/SVG/1.1/DTD/svg11.dtd">
<svg version="1.1" id="Camada_1" xmlns="http://www.w3.org/2000/svg" xmlns:xlink="http://www.w3.org/1999/xlink" x="0px" y="0px"
	 viewBox="0 0 29 29" enable-background="new 0 0 29 29" xml:space="preserve">
<path fill="#1C8CBC" d="M16.6,29h-3.3l-1-4.3c-0.9-0.3-1.9-0.7-3-1.4l-3.6,2.3l-2.3-2.3l2.2-3.9c-0.4-0.8-0.8-1.6-1-2.4L0,15.7v-3.3
	l4.9-1c0.2-0.8,0.6-1.6,1-2.4l-2.4-4l2.3-2.3l3.9,2.6c0.8-0.4,1.6-0.8,2.6-1l0,0.1L13.4,0h3.3l1.1,4.3c0.8,0.2,1.6,0.5,2.3,0.9
	l4-2.4l2.3,2.3l-2.5,3.7c0.5,0.8,0.9,1.7,1.2,2.8l4,0.9v3.3l-3.9,1.1c-0.2,0.9-0.5,1.9-1,2.9l2.3,3.6L24,25.6l-3.8-2.1
	c-0.9,0.5-1.8,1-2.7,1.2L16.6,29z M14.1,28h1.7l0.9-4.1l0.3-0.1c0.9-0.2,1.9-0.6,2.9-1.3l0.3-0.2l3.6,2l1.2-1.2l-2.2-3.4l0.2-0.3
	c0.5-0.8,0.9-1.8,1.1-3.1l0.1-0.3L28,15v-1.7l-3.8-0.8l-0.1-0.3c-0.3-1.2-0.7-2.2-1.3-3.1l-0.2-0.3L25,5.2L23.8,4l-3.7,2.2L20,6.2
	l-0.2-0.1c-0.8-0.4-1.6-0.8-2.4-1l-0.1,0l-0.4-0.3L15.9,1h-1.7l-0.9,3.8l-0.4,0.4l-0.2,0c-1,0.3-1.9,0.6-2.7,1.1L9.7,6.5L9.4,6.3
	L6,4L4.8,5.2l2.2,3.7L7,9.2L6.9,9.4C6.4,10.2,6,11.1,5.8,12l-0.1,0.3l-0.6,0.2L1,13.3v1.7L5.2,16l0.4,0.2l0.1,0.3
	c0.2,0.8,0.5,1.7,1,2.6l0.1,0.1l-0.1,0.5l-2,3.5L6,24.3l3.5-2.3l0.3,0.2c1.2,0.8,2.2,1.3,3.2,1.5l0.3,0.1L14.1,28z"/>
<path fill="#1C8CBC" d="M15,19.3c-2.8,0-5-2.2-5-5s2.2-5,5-5c2.8,0,5,2.2,5,5S17.8,19.3,15,19.3z M15,10.3c-2.2,0-4,1.8-4,4
	c0,2.2,1.8,4,4,4c2.2,0,4-1.8,4-4C19,12.1,17.2,10.3,15,10.3z"/>
</svg>
