<?xml version="1.0" encoding="utf-8"?>
<!-- Generator: Adobe Illustrator 18.0.0, SVG Export Plug-In . SVG Version: 6.00 Build 0)  -->
<!DOCTYPE svg PUBLIC "-//W3C//DTD SVG 1.1//EN" "http://www.w3.org/Graphics/SVG/1.1/DTD/svg11.dtd">
<svg version="1.1" id="Camada_1" xmlns="http://www.w3.org/2000/svg" xmlns:xlink="http://www.w3.org/1999/xlink" x="0px" y="0px"
	 viewBox="0 0 409.3 62.8" enable-background="new 0 0 409.3 62.8" xml:space="preserve">
<path fill-rule="evenodd" clip-rule="evenodd" fill="#007CB5" d="M113.7,38.2c0.6,0.1,1,0.1,1.5,0.2v2.3h-6.8v-2.3
	c0.6-0.1,1.3-0.1,2-0.2V33c-1.9,0-3.7,0.1-5.6-0.1c-0.8-0.1-1.6-0.6-2.2-1.1c-2.1-1.8-2.8-6.3-1.6-9.4c1-2.6,3.3-4.1,6.5-4
	c1.7,0,3.3,0.4,5,0.6c1,0.1,1.2,0.7,1.2,1.6c-0.1,4.5,0,9,0,13.6V38.2z M110.5,25.7c0-1.2,0-2.3,0-3.5c0-0.3-0.2-0.8-0.5-1
	c-2.2-1.2-5.2,0.1-5.8,2.6c-0.2,1-0.3,2.2-0.1,3.3c0.4,2.8,2,3.8,4.8,3.4c1.1-0.2,1.6-0.5,1.6-1.9C110.6,27.6,110.5,26.6,110.5,25.7
	"/>
<path fill-rule="evenodd" clip-rule="evenodd" fill="#007CB5" d="M76,30.4c0.6,0.1,1,0.2,1.5,0.3v2.2h-6.9v-2.2
	c0.5-0.1,1.1-0.2,1.7-0.4V15.8c-0.6-0.1-1.1,0-1.7,0v-2.2c3.6,0,7.1-0.3,10.6,0.1c3.2,0.4,4.6,3.7,3.8,7.7c-0.5,2.5-2.1,4.2-4.7,4.6
	c-1.4,0.2-2.8,0.3-4.4,0.4V30.4z M75.8,15.8c0,2.4,0,4.5,0,6.7c0,0.3,0.1,0.9,0.4,0.9c1.8,0,2.9-0.1,4-0.5c1.2-0.5,1.1-2.3,1.1-3.4
	c0-1.3-0.1-2.8-1.5-3.4c-0.3-0.1-0.7-0.2-1-0.2C77.8,15.7,77,15.8,75.8,15.8"/>
<path fill-rule="evenodd" clip-rule="evenodd" fill="#007CB5" d="M152.8,30.4c0.7,0.1,1.1,0.2,1.6,0.3v2.2h-6.7v-2.2
	c0.6-0.1,1.1-0.2,1.7-0.3v-9.2c-0.6-0.1-1.1-0.1-1.7-0.2v-2.3c1.8,0.3,3.5-0.7,5.2,0.6c0.1,0.1,0.5-0.1,0.7-0.1
	c0.5-0.1,0.9-0.3,1.3-0.4c4.3-1.1,6.6,0.6,6.6,5.1c0,1.6,0,3.3,0,4.9c0,1.3,0.1,2.3,1.8,1.8c0.1,0.7,0.3,1.3,0.4,1.9
	c-2.6,1.5-5.6,0.7-5.5-2.8c0.1-1.9,0-3.9,0-5.8c0-1-0.1-2.4-1.4-2.5c-1.3-0.1-2.6,0.4-3.9,0.6c-0.1,0-0.2,0.4-0.2,0.7
	c0,0.3,0,0.5,0,0.8V30.4z"/>
<path fill-rule="evenodd" clip-rule="evenodd" fill="#007CB5" d="M131.4,30.5c0.1,0.9,0.2,1.5,0.3,2.1c-2.1,1-3.7,0.8-5-0.6
	c-1.3,0.4-2.5,0.9-3.8,1.2c-3.5,0.8-5.7-1-5.9-4.6c-0.1-2.4,0-4.8,0-7.3c-0.7-0.1-1.2-0.2-1.8-0.2v-2.2h5.1v5c0,1,0,2,0,3
	c-0.2,4,2,4.3,5.2,3.2c0.3-0.1,0.7-0.6,0.7-0.9c0.1-2,0-4.1,0-6.2c0-0.6,0-1.1,0-1.8c-0.7-0.1-1.2-0.1-1.8-0.2v-2.1h5.1v7.7
	c0,0.8,0,1.6,0,2.4C129.5,30.1,129.7,31,131.4,30.5"/>
<path fill-rule="evenodd" clip-rule="evenodd" fill="#007CB5" d="M178.6,25.7c0,5.9-4.3,9-9.9,7.2c-0.3-0.1-0.7-0.3-1-0.5
	c-2.7-1.4-3.9-5.1-2.9-9.2c0.7-2.9,2.8-4.6,5.9-4.8C175.9,18.1,178.6,20.6,178.6,25.7 M175.2,25.9c-0.1-0.7-0.1-1.5-0.3-2.2
	c-0.5-1.9-1.6-2.7-3.5-2.7c-1.8,0-2.8,0.8-3.3,2.7c-0.2,0.7-0.2,1.4-0.2,2.2c0,3.2,1.3,4.9,3.6,4.9
	C173.9,30.7,175.1,29.1,175.2,25.9"/>
<path fill-rule="evenodd" clip-rule="evenodd" fill="#007CB5" d="M98.8,26.8h-9.5c0,1.5,0.4,2.7,1.7,3.2c1.1,0.5,2.4,0.6,3.7,0.7
	c1.2,0,2.5-0.2,3.8-0.3c0.1,0.7,0.2,1.4,0.4,2.3c-3.5,0.7-7,1.4-10.2-0.4c-3-1.7-3.1-4.7-2.8-7.7c0.5-4.6,3.8-6.9,8.3-6
	c2.5,0.5,3.9,2.2,4.4,4.6C98.7,24.2,98.7,25.4,98.8,26.8 M89.3,24.7h6.2c0-2.5-0.9-3.6-2.9-3.7C90.4,20.9,89.3,22,89.3,24.7"/>
<path fill-rule="evenodd" clip-rule="evenodd" fill="#007CB5" d="M145.5,26.9h-9.2c0.3,3.5,1.3,3.9,9.2,3.5c0.1,0.7,0.2,1.4,0.4,2.2
	c-3.2,0.7-6.4,1.2-9.5,0c-2.7-1-4.1-4.1-3.6-8c0.4-3.5,2.2-5.6,5.2-6.1C143.2,17.6,146.5,21.2,145.5,26.9 M136.2,24.6h6.3
	c-0.2-2.7-1.1-3.7-3.2-3.6C137.3,21,136.4,22.1,136.2,24.6"/>
<path fill-rule="evenodd" clip-rule="evenodd" fill="#007CB5" d="M219.4,16.3c-0.4,0.6-1.2,0.8-1.8,0.4c-0.6-0.4-0.8-1.2-0.4-1.8
	l1.3-1.9c0.4-0.6,1.2-0.8,1.8-0.4c0.6,0.4,0.8,1.2,0.4,1.8L219.4,16.3z"/>
<path fill-rule="evenodd" clip-rule="evenodd" fill="#007CB5" d="M264.3,19.2c1-0.3,2.2-0.8,3.4-0.9c3.6-0.3,5.6,1.5,6,5.1
	c0.1,1.2,0.1,2.4,0,3.6c-0.4,3.7-2.8,5.9-6.8,6.1c-0.9,0-1.9,0-2.9,0v5c0.6,0.1,1.1,0.1,1.7,0.2v2.3h-7v-2.3
	c0.6-0.1,1.1-0.1,1.7-0.2V21c-0.5,0-1-0.1-1.7-0.1v-2.3C260.6,18.8,262.5,18.1,264.3,19.2 M263.8,26.1c0,1.1,0,2.2,0,3.3
	c0,0.3,0.2,0.8,0.5,1c1.5,0.9,4.5,0.1,5.3-1.5c1-2,1-4.1,0.2-6.1c-0.6-1.5-2.1-2-3.8-1.6c-2,0.5-2.2,0.7-2.2,2.9
	C263.8,24.7,263.8,25.4,263.8,26.1"/>
<path fill-rule="evenodd" clip-rule="evenodd" fill="#007CB5" d="M193,30.3c0.6,0.1,1,0.2,1.5,0.3v2.2h-6.9v-2.2
	c0.5-0.1,1.1-0.2,1.7-0.4V15.7c-0.6-0.1-1.1,0-1.7,0v-2.2c3.6,0,7.1-0.3,10.6,0.1c3.2,0.4,4.6,3.7,3.8,7.7c-0.5,2.5-2.1,4.2-4.7,4.6
	c-1.4,0.2-2.8,0.3-4.4,0.4V30.3z M192.8,15.7c0,2.4,0,4.5,0,6.7c0,0.3,0.1,0.9,0.4,0.9c1.8,0,2.9-0.1,4-0.5c1.2-0.5,1.1-2.3,1.1-3.4
	c0-1.3-0.1-2.8-1.5-3.4c-0.3-0.1-0.6-0.2-1-0.2C194.8,15.7,194,15.7,192.8,15.7"/>
<path fill-rule="evenodd" clip-rule="evenodd" fill="#007CB5" d="M227.9,30.4c0.6,0.1,1,0.2,1.6,0.2v2.2h-6.7v-2.2
	c0.5-0.1,1-0.2,1.6-0.3v-9.3c-0.5-0.1-1-0.1-1.6-0.2v-2.3c1.8,0.4,3.6-0.7,5.2,0.6c0.1,0.1,0.5-0.1,0.7-0.2c0.5-0.1,0.9-0.3,1.4-0.4
	c4.3-1.1,6.5,0.6,6.6,5c0,1.7,0,3.5,0,5.2c0,1.6,0,1.6,1.8,1.7c0.1,0.6,0.3,1.3,0.4,1.9c-3.1,1.7-5.3,0.5-5.4-2.8c-0.1-2,0-4-0.1-6
	c0-1-0.2-2.3-1.4-2.3c-1.3-0.1-2.6,0.4-3.9,0.7c-0.1,0-0.2,0.5-0.2,0.7C227.9,25.2,227.9,27.8,227.9,30.4"/>
<path fill-rule="evenodd" clip-rule="evenodd" fill="#007CB5" d="M287.9,26.8h-9.5c0.1,2.4,1.1,3.6,3.4,3.8c1.9,0.2,3.7,0,5.7,0
	c0.1,0.5,0.2,1.1,0.3,2c-3.3,0.7-6.5,1.2-9.7-0.2c-2.6-1.1-3.9-4.2-3.4-8c0.6-4.6,3.9-6.9,8.4-6c2,0.4,3.5,1.6,4,3.6
	C287.6,23.5,287.7,25,287.9,26.8 M284.5,24.6c0-2.5-0.9-3.6-2.8-3.7c-2.2-0.1-3.3,1.1-3.4,3.7H284.5z"/>
<path fill-rule="evenodd" clip-rule="evenodd" fill="#007CB5" d="M250.9,18.4v5h-2.7c-0.1-0.7-0.1-1.5-0.2-2.2
	c-3.9-0.9-5.8,0.5-5.8,4.4c0,3.8,1.4,5.2,5.3,5.1c1,0,2.1-0.2,3.3-0.3c0.1,0.8,0.3,1.5,0.4,2.4c-3,0.5-5.7,0.9-8.5-0.1
	c-0.3-0.1-0.6-0.2-0.9-0.4c-2.5-1.4-3.5-4.9-2.7-9.1c0.5-2.7,2.3-4.4,5.2-4.7C246.5,18.2,248.6,18.4,250.9,18.4"/>
<path fill-rule="evenodd" clip-rule="evenodd" fill="#007CB5" d="M205.4,21.1c-0.6-0.1-1.1-0.1-1.7-0.2v-2.3
	c1.8,0.2,3.6-0.6,5.2,0.5c1.6-0.3,3.1-0.6,4.6-0.7c0.9-0.1,1.3,0.4,1.3,1.3c-0.1,1,0,2.1,0,3.3h-2.7c0-0.7-0.1-1.3-0.1-1.9
	c-2.3-0.4-3.2,0.4-3.2,2.5v6.7c0.7,0.1,1.2,0.2,1.8,0.2v2.2h-6.9v-2.2c0.6-0.1,1.1-0.2,1.7-0.3V21.1z"/>
<path fill-rule="evenodd" clip-rule="evenodd" fill="#007CB5" d="M221.4,30.7c-1.7,0-1.8-0.1-1.8-1.7c0-2.8,0-5.7,0-8.5v-1.6h-3.2
	V24c0,2.2,0,4.3,0.1,6.5c0.1,2,1.4,3,3.3,2.7c0.7-0.1,1.3-0.3,2-0.4C221.7,32,221.6,31.3,221.4,30.7"/>
<path fill-rule="evenodd" clip-rule="evenodd" fill="#007CB5" d="M258.1,30.7c-1.7,0-1.8-0.1-1.8-1.7c0-2.8,0-5.7,0-8.5v-1.6h-3.2
	V24c0,2.2,0,4.3,0.1,6.5c0.1,2,1.4,3,3.3,2.7c0.7-0.1,1.3-0.3,2-0.4C258.3,32,258.2,31.3,258.1,30.7"/>
<path fill-rule="evenodd" clip-rule="evenodd" fill="#007CB5" d="M256.4,15.1c0-1-0.8-1.8-1.8-1.8c-1,0-1.8,0.8-1.8,1.8
	c0,1,0.8,1.8,1.8,1.8C255.6,16.9,256.4,16.1,256.4,15.1"/>
<path fill-rule="evenodd" clip-rule="evenodd" fill="#004F87" d="M385.1,21.1c-0.6,0-1.1-0.1-1.7-0.1v-2.2h4.9
	c0.1,0.3,0.1,0.6,0.2,1c2.6-1.1,5.2-2.4,7.4-0.3c1.9-0.4,3.6-0.9,5.3-1c2.5-0.1,4,1.5,4.1,4c0.1,2.1,0,4.1,0,6.2
	c0,1.7,0.1,1.7,1.8,1.8c0.1,0.6,0.3,1.3,0.4,2c-0.7,0.2-1.4,0.4-2,0.4c-2,0.2-3.1-0.7-3.2-2.7c-0.1-1.9-0.1-3.8-0.1-5.8
	c0-0.6,0-1.1-0.1-1.7c-0.2-1.1-0.9-1.8-2.1-1.7c-1.1,0.1-2.2,0.4-3.2,0.7v8.7c0.6,0,1.2,0.1,1.8,0.1v2.2h-5c0-1.3,0-2.5,0-3.7
	c0-2,0-3.9-0.1-5.9c-0.1-1.5-0.9-2.1-2.4-2.1c-0.1,0-0.3,0-0.4,0c-2.1,0.3-2.5,0.7-2.5,2.8v6.6h1.8v2.3h-6.7v-2.2
	c0.5,0,1.1-0.1,1.7-0.1V21.1z"/>
<path fill-rule="evenodd" clip-rule="evenodd" fill="#004F87" d="M352.9,19.1v-3.4c-0.6,0-1.1-0.1-1.7-0.1v-2.2h5v1
	c0,5.5,0,11,0,16.5c0,0.8-0.2,1.2-1,1.4c-2.3,0.6-4.7,1-7.1,0.5c-2.9-0.6-4.5-2.1-4.8-5.1c-0.2-1.6-0.2-3.3,0.1-4.9
	c0.7-3.5,3.6-5.1,7.3-4.3C351.5,18.7,352.2,18.9,352.9,19.1 M353,26c0-1.2,0-2.4,0-3.6c0-0.3-0.1-0.7-0.3-0.8c-2-1.5-5.4-0.4-5.9,2
	c-0.3,1.4-0.2,3,0,4.4c0.2,1.5,1.2,2.4,2.8,2.5c0.9,0.1,1.9,0,2.8-0.1c0.2,0,0.6-0.5,0.6-0.8C353,28.4,353,27.2,353,26"/>
<path fill-rule="evenodd" clip-rule="evenodd" fill="#004F87" d="M313.9,14.1v4.3h-2.7v-2.6c-1.7,0.1-3.3-0.1-4.9,0.1
	c-0.9,0.1-1.4,0.8-1.5,1.7c-0.1,1,0,1.9,1,2.4c0.9,0.5,1.9,0.8,2.8,1.2c1.1,0.4,2.2,0.7,3.3,1.3c2.4,1.3,2.8,3.5,2.5,6
	c-0.3,2.2-1.6,3.6-3.7,4.1c-3.1,0.8-6.2,0.3-9.3-0.1v-4.6h2.8c0,0.6,0,1.2,0,1.8c-0.1,0.7,0.3,0.9,0.9,0.9c1.1,0,2.3,0.1,3.4,0
	c1.5-0.1,2.5-0.9,2.8-2.2c0.4-1.4-0.1-2.9-1.4-3.6c-0.9-0.5-1.9-0.8-2.8-1.2c-0.6-0.2-1.3-0.4-1.9-0.7c-2.8-1.1-3.9-3.1-3.4-6
	c0.3-1.8,1.8-3.1,3.9-3.4C308.3,13.1,311.1,13.6,313.9,14.1"/>
<path fill-rule="evenodd" clip-rule="evenodd" fill="#004F87" d="M381.4,30.5c0.1,0.6,0.2,1.2,0.4,1.8c-1.9,1.1-3.8,0.8-4.8-0.5
	c-1.8,0.4-3.5,1-5.2,1.1c-2.5,0.2-4.1-1.3-4.3-3.8c-0.1-2.2-0.1-4.5-0.1-6.7c0-0.4,0-0.8,0-1.3c-0.6,0-1.2-0.1-1.8-0.1v-2.2h4.9v1.1
	c0,2.6,0,5.1,0,7.7c0,2.3,1.2,3.3,3.5,2.8c2.3-0.5,2.4-0.6,2.4-2.9v-6.4c-0.6,0-1.2-0.1-1.8-0.1v-2.2h5v1.1c0,2.9,0,5.8,0,8.6
	C379.6,30.3,379.6,30.3,381.4,30.5"/>
<path fill-rule="evenodd" clip-rule="evenodd" fill="#004F87" d="M321.2,18.7h6.6V21h-6.6c0,2.6-0.1,5,0,7.5
	c0.1,1.4,0.8,1.9,2.2,1.8c0.3,0,0.6,0,1-0.1v2.3c-4.1,1.1-6.4-0.8-6.4-4.1c0-2.4,0-4.8,0-7.3c-0.6,0-1.2-0.1-1.8-0.1v-2.3h1.7v-3
	h3.2V18.7z"/>
<path fill-rule="evenodd" clip-rule="evenodd" fill="#004F87" d="M341.3,30.5c-1.8-0.1-1.8-0.1-1.8-1.8c0-1.1,0-2.3,0-3.4v-6.5h-5
	V21c0.6,0,1.2,0.1,1.8,0.1c0,2.7,0,5.4,0,8c0,0.2-0.2,0.5-0.4,0.6c-0.5,0.2-1,0.4-1.5,0.5c-2.8,0.7-4-0.2-4-3.1c0-2.8,0-5.6,0-8.5
	h-3.1V21h0c0,0.9,0,1.6,0,2.4c0,2,0,3.9,0.1,5.9c0.2,2.4,1.7,3.9,4.1,3.7c1.8-0.1,3.5-0.7,5.4-1.1c1.1,1.2,2.7,1.5,4.8,0.5
	C341.6,31.7,341.4,31.1,341.3,30.5"/>
<path fill-rule="evenodd" clip-rule="evenodd" fill="#004F87" d="M364.1,30.4c-1.7,0-1.8-0.1-1.8-1.7c0-2.8,0-5.6,0-8.4v-1.6h-3.1v5
	c0,2.2,0,4.3,0.1,6.5c0.1,2,1.3,2.9,3.3,2.7c0.7-0.1,1.3-0.3,2-0.4C364.3,31.7,364.2,31.1,364.1,30.4"/>
<path fill-rule="evenodd" clip-rule="evenodd" fill="#004F87" d="M362.4,15c0-1-0.8-1.7-1.7-1.7c-1,0-1.7,0.8-1.7,1.7
	c0,1,0.8,1.7,1.7,1.7C361.6,16.7,362.4,16,362.4,15"/>
<polygon fill="#575250" points="74.3,46.4 74.3,47.1 70.8,47.1 70.8,49.1 74.1,49.1 74.1,49.8 70.8,49.8 70.8,52 74.4,52 74.4,52.7 
	70,52.7 70,46.4 "/>
<path fill="#575250" d="M81.9,46.4c1,0,1.7,0.2,2.2,0.7c0.5,0.5,0.8,1.2,0.8,2.3c0,0.5-0.1,1-0.2,1.4c-0.1,0.4-0.3,0.8-0.5,1
	c-0.2,0.3-0.6,0.5-0.9,0.6c-0.4,0.1-0.8,0.2-1.4,0.2h-2.2v-6.3H81.9z M82,52c0.1,0,0.2,0,0.4,0c0.1,0,0.3-0.1,0.4-0.1
	c0.2-0.1,0.3-0.1,0.5-0.2c0.2-0.1,0.3-0.2,0.4-0.4c0.1-0.2,0.2-0.4,0.3-0.7c0.1-0.3,0.1-0.6,0.1-1c0-0.4,0-0.7-0.1-1
	c-0.1-0.3-0.2-0.5-0.4-0.8c-0.2-0.2-0.4-0.4-0.7-0.5c-0.3-0.1-0.6-0.2-1-0.2h-1.4V52H82z"/>
<path fill="#575250" d="M94.8,52.2c-0.4,0.4-1,0.6-1.8,0.6c-0.8,0-1.4-0.2-1.9-0.6c-0.5-0.4-0.7-1-0.7-1.8v-4h0.8v4
	c0,0.6,0.1,1,0.4,1.3c0.3,0.3,0.7,0.4,1.3,0.4c0.5,0,0.9-0.1,1.2-0.4c0.3-0.3,0.4-0.7,0.4-1.3v-4h0.8v4
	C95.4,51.2,95.2,51.8,94.8,52.2"/>
<path fill="#575250" d="M105,47.3c-0.3-0.2-0.7-0.3-1.1-0.3c-0.4,0-0.7,0.1-1,0.2c-0.3,0.1-0.5,0.3-0.7,0.6
	c-0.2,0.2-0.3,0.5-0.4,0.8c-0.1,0.3-0.1,0.6-0.1,1c0,0.4,0,0.7,0.1,1c0.1,0.3,0.2,0.6,0.4,0.8c0.2,0.2,0.4,0.4,0.7,0.6
	c0.3,0.1,0.6,0.2,1,0.2c0.3,0,0.5,0,0.7-0.1c0.2-0.1,0.4-0.2,0.6-0.4c0.2-0.2,0.3-0.4,0.4-0.6c0.1-0.2,0.1-0.5,0.2-0.7h0.8
	c-0.1,0.8-0.4,1.4-0.8,1.9c-0.5,0.4-1.1,0.7-1.9,0.7c-0.5,0-0.9-0.1-1.3-0.2c-0.4-0.2-0.7-0.4-0.9-0.7c-0.2-0.3-0.4-0.6-0.5-1
	c-0.1-0.4-0.2-0.8-0.2-1.3c0-0.5,0.1-0.9,0.2-1.3c0.1-0.4,0.3-0.8,0.6-1.1c0.3-0.3,0.6-0.5,0.9-0.7c0.4-0.2,0.8-0.3,1.3-0.3
	c0.3,0,0.6,0,0.9,0.1c0.3,0.1,0.6,0.2,0.8,0.4c0.2,0.2,0.4,0.4,0.6,0.6c0.2,0.3,0.3,0.6,0.3,0.9h-0.8
	C105.5,47.8,105.3,47.5,105,47.3"/>
<path fill="#575250" d="M114.6,46.4l2.5,6.3h-0.9l-0.7-1.9h-2.7l-0.7,1.9h-0.9l2.5-6.3H114.6z M115.2,50.1l-1-2.9h0l-1.1,2.9H115.2z
	"/>
<path fill="#575250" d="M125.9,47.3c-0.3-0.2-0.7-0.3-1.1-0.3c-0.4,0-0.7,0.1-1,0.2c-0.3,0.1-0.5,0.3-0.7,0.6
	c-0.2,0.2-0.3,0.5-0.4,0.8c-0.1,0.3-0.1,0.6-0.1,1c0,0.4,0,0.7,0.1,1c0.1,0.3,0.2,0.6,0.4,0.8c0.2,0.2,0.4,0.4,0.7,0.6
	c0.3,0.1,0.6,0.2,1,0.2c0.3,0,0.5,0,0.7-0.1c0.2-0.1,0.4-0.2,0.6-0.4c0.2-0.2,0.3-0.4,0.4-0.6c0.1-0.2,0.1-0.5,0.2-0.7h0.8
	c-0.1,0.8-0.4,1.4-0.8,1.8c-0.5,0.4-1.1,0.7-1.8,0.7l-0.3,0.3l0,0c0.1,0,0.2-0.1,0.3-0.1c0.2,0,0.4,0.1,0.5,0.2
	c0.2,0.1,0.2,0.3,0.2,0.5c0,0.1,0,0.3-0.1,0.4c-0.1,0.1-0.2,0.2-0.3,0.2c-0.1,0.1-0.2,0.1-0.4,0.1c-0.1,0-0.3,0-0.4,0
	c-0.1,0-0.3,0-0.4-0.1c-0.1,0-0.3-0.1-0.4-0.1l0.2-0.4c0.1,0,0.2,0.1,0.3,0.1c0.1,0,0.2,0,0.3,0c0.1,0,0.1,0,0.2,0
	c0.1,0,0.1,0,0.2,0c0.1,0,0.1-0.1,0.1-0.1c0,0,0.1-0.1,0.1-0.1c0-0.1,0-0.2-0.1-0.2c-0.1-0.1-0.2-0.1-0.3-0.1c-0.1,0-0.1,0-0.2,0
	c-0.1,0-0.1,0-0.2,0.1l-0.2-0.2l0.4-0.5c-0.4,0-0.8-0.1-1.2-0.3c-0.3-0.2-0.6-0.4-0.8-0.7c-0.2-0.3-0.4-0.6-0.5-1
	c-0.1-0.4-0.2-0.8-0.2-1.2c0-0.5,0.1-0.9,0.2-1.3c0.1-0.4,0.3-0.8,0.6-1.1c0.3-0.3,0.6-0.5,0.9-0.7c0.4-0.2,0.8-0.3,1.3-0.3
	c0.3,0,0.6,0,0.9,0.1c0.3,0.1,0.6,0.2,0.8,0.4c0.2,0.2,0.4,0.4,0.6,0.6c0.2,0.3,0.3,0.6,0.3,0.9h-0.8
	C126.4,47.8,126.2,47.5,125.9,47.3"/>
<path fill="#575250" d="M135.5,46.4l2.5,6.3h-0.9l-0.7-1.9h-2.7l-0.7,1.9h-0.9l2.5-6.3H135.5z M136.3,45.5c-0.1,0.1-0.2,0.2-0.3,0.2
	c-0.1,0.1-0.2,0.1-0.4,0.1c-0.1,0-0.2,0-0.3-0.1c-0.1,0-0.2-0.1-0.3-0.1c-0.1,0-0.2-0.1-0.3-0.1c-0.1,0-0.2-0.1-0.3-0.1
	c-0.1,0-0.2,0-0.3,0.1c-0.1,0.1-0.1,0.2-0.1,0.3h-0.5c0-0.1,0.1-0.3,0.1-0.4c0.1-0.1,0.1-0.2,0.2-0.3c0.1-0.1,0.2-0.2,0.3-0.2
	c0.1-0.1,0.2-0.1,0.4-0.1c0.1,0,0.2,0,0.3,0.1c0.1,0,0.2,0.1,0.3,0.1c0.1,0,0.2,0.1,0.3,0.1c0.1,0,0.2,0.1,0.3,0.1
	c0.1,0,0.2,0,0.3-0.1c0.1-0.1,0.1-0.2,0.1-0.3h0.5C136.6,45.1,136.5,45.3,136.3,45.5 M136.1,50.1l-1-2.9h0l-1.1,2.9H136.1z"/>
<path fill="#575250" d="M142.9,48.3c0.1-0.4,0.3-0.7,0.6-1.1c0.3-0.3,0.6-0.6,0.9-0.7c0.4-0.2,0.8-0.3,1.3-0.3
	c0.5,0,0.9,0.1,1.3,0.3c0.4,0.2,0.7,0.4,0.9,0.7c0.3,0.3,0.4,0.7,0.6,1.1c0.1,0.4,0.2,0.8,0.2,1.2c0,0.4-0.1,0.8-0.2,1.2
	c-0.1,0.4-0.3,0.7-0.6,1.1c-0.2,0.3-0.6,0.5-0.9,0.7c-0.4,0.2-0.8,0.3-1.3,0.3c-0.5,0-0.9-0.1-1.3-0.3c-0.4-0.2-0.7-0.4-0.9-0.7
	c-0.3-0.3-0.4-0.7-0.6-1.1c-0.1-0.4-0.2-0.8-0.2-1.2C142.7,49.1,142.7,48.7,142.9,48.3 M143.6,50.4c0.1,0.3,0.2,0.6,0.4,0.8
	c0.2,0.2,0.4,0.4,0.7,0.6c0.3,0.1,0.6,0.2,1,0.2c0.4,0,0.7-0.1,1-0.2c0.3-0.2,0.5-0.4,0.7-0.6c0.2-0.2,0.3-0.5,0.4-0.8
	c0.1-0.3,0.1-0.6,0.1-0.9c0-0.3,0-0.6-0.1-0.9c-0.1-0.3-0.2-0.6-0.4-0.8c-0.2-0.2-0.4-0.4-0.7-0.6c-0.3-0.1-0.6-0.2-1-0.2
	c-0.4,0-0.7,0.1-1,0.2c-0.3,0.2-0.5,0.3-0.7,0.6c-0.2,0.2-0.3,0.5-0.4,0.8c-0.1,0.3-0.1,0.6-0.1,0.9
	C143.5,49.8,143.5,50.1,143.6,50.4"/>
<rect x="161" y="46.4" fill="#575250" width="0.8" height="6.3"/>
<polygon fill="#575250" points="168.6,46.4 171.9,51.5 171.9,51.5 171.9,46.4 172.7,46.4 172.7,52.7 171.8,52.7 168.5,47.6 
	168.5,47.6 168.5,52.7 167.7,52.7 167.7,46.4 "/>
<polygon fill="#575250" points="182.6,46.4 182.6,47.1 179.3,47.1 179.3,49.1 182.2,49.1 182.2,49.8 179.3,49.8 179.3,52.7 
	178.5,52.7 178.5,46.4 "/>
<path fill="#575250" d="M190.1,46.4l2.5,6.3h-0.9l-0.7-1.9h-2.7l-0.7,1.9h-0.9l2.5-6.3H190.1z M190.7,50.1l-1-2.9h0l-1.1,2.9H190.7z
	"/>
<polygon fill="#575250" points="198.5,46.4 201.8,51.5 201.8,51.5 201.8,46.4 202.6,46.4 202.6,52.7 201.7,52.7 198.4,47.6 
	198.4,47.6 198.4,52.7 197.6,52.7 197.6,46.4 "/>
<polygon fill="#575250" points="207.7,47.1 207.7,46.4 212.7,46.4 212.7,47.1 210.6,47.1 210.6,52.7 209.8,52.7 209.8,47.1 "/>
<rect x="217.9" y="46.4" fill="#575250" width="0.8" height="6.3"/>
<polygon fill="#575250" points="225.4,46.4 225.4,52 228.7,52 228.7,52.7 224.5,52.7 224.5,46.4 "/>
<polygon fill="#575250" points="252.8,46.3 252.8,47 249.5,47 249.5,49 252.4,49 252.4,49.7 249.5,49.7 249.5,52.6 248.7,52.6 
	248.7,46.3 "/>
<path fill="#575250" d="M262.6,52.1c-0.4,0.4-1,0.6-1.8,0.6c-0.8,0-1.4-0.2-1.9-0.6c-0.5-0.4-0.7-1-0.7-1.8v-4h0.8v4
	c0,0.6,0.2,1,0.4,1.3c0.3,0.3,0.7,0.4,1.3,0.4c0.5,0,0.9-0.1,1.2-0.4c0.3-0.3,0.4-0.7,0.4-1.3v-4h0.8v4
	C263.2,51.1,263,51.7,262.6,52.1"/>
<polygon fill="#575250" points="269.8,46.3 273.2,51.4 273.2,51.4 273.2,46.3 274,46.3 274,52.6 273,52.6 269.8,47.5 269.7,47.5 
	269.7,52.6 268.9,52.6 268.9,46.3 "/>
<path fill="#575250" d="M281.9,46.3c1,0,1.7,0.2,2.2,0.7c0.5,0.5,0.8,1.2,0.8,2.3c0,0.5-0.1,1-0.2,1.4c-0.1,0.4-0.3,0.8-0.5,1
	c-0.2,0.3-0.6,0.5-0.9,0.6c-0.4,0.1-0.8,0.2-1.4,0.2h-2.2v-6.3H281.9z M282,51.9c0.1,0,0.2,0,0.4,0c0.1,0,0.3,0,0.4-0.1
	c0.2-0.1,0.3-0.1,0.5-0.2c0.2-0.1,0.3-0.3,0.4-0.4c0.1-0.2,0.2-0.4,0.3-0.7c0.1-0.3,0.1-0.6,0.1-1c0-0.4,0-0.7-0.1-1
	c-0.1-0.3-0.2-0.5-0.4-0.8c-0.2-0.2-0.4-0.4-0.6-0.5c-0.3-0.1-0.6-0.2-1-0.2h-1.4v4.9H282z"/>
<path fill="#575250" d="M293,46.3l2.5,6.3h-0.9l-0.7-1.9h-2.7l-0.7,1.9h-0.9l2.5-6.3H293z M293.6,50l-1.1-2.9h0l-1.1,2.9H293.6z"/>
<polygon fill="#575250" points="301.6,46.3 303.6,51.6 305.6,46.3 306.8,46.3 306.8,52.6 306,52.6 306,47.4 306,47.4 304,52.6 
	303.3,52.6 301.3,47.4 301.3,47.4 301.3,52.6 300.5,52.6 300.5,46.3 "/>
<polygon fill="#575250" points="316.9,46.3 316.9,47 313.4,47 313.4,49 316.7,49 316.7,49.7 313.4,49.7 313.4,51.9 317,51.9 
	317,52.6 312.6,52.6 312.6,46.3 "/>
<polygon fill="#575250" points="323.3,46.3 326.6,51.4 326.6,51.4 326.6,46.3 327.4,46.3 327.4,52.6 326.5,52.6 323.2,47.5 
	323.2,47.5 323.2,52.6 322.4,52.6 322.4,46.3 "/>
<polygon fill="#575250" points="332.5,47 332.5,46.3 337.5,46.3 337.5,47 335.4,47 335.4,52.6 334.6,52.6 334.6,47 "/>
<path fill="#575250" d="M344.5,46.3l2.5,6.3H346l-0.7-1.9h-2.7l-0.7,1.9h-0.9l2.4-6.3H344.5z M345,50l-1-2.9h0l-1.1,2.9H345z"/>
<polygon fill="#575250" points="352.8,46.3 352.8,51.9 356.1,51.9 356.1,52.6 352,52.6 352,46.3 "/>
<polygon fill="#575250" points="370.6,47.1 370.6,46.3 369,46.3 368.2,46.3 366.6,46.3 366.6,47.1 368.2,47.1 368.2,51.7 
	366.6,51.7 366.6,52.6 368.2,52.6 368.2,52.6 369,52.6 369,52.6 370.6,52.6 370.6,51.7 369,51.7 369,47.1 "/>
<polygon fill="#575250" points="400.8,47.1 400.8,46.3 399.2,46.3 398.4,46.3 396.8,46.3 396.8,47.1 398.4,47.1 398.4,51.7 
	396.8,51.7 396.8,52.6 398.4,52.6 398.4,52.6 399.2,52.6 399.2,52.6 400.8,52.6 400.8,51.7 399.2,51.7 399.2,47.1 "/>
<polygon fill="#575250" points="407.5,47.1 407.5,46.3 405.9,46.3 405.1,46.3 403.5,46.3 403.5,47.1 405.1,47.1 405.1,51.7 
	403.5,51.7 403.5,52.6 405.1,52.6 405.1,52.6 405.9,52.6 405.9,52.6 407.5,52.6 407.5,51.7 405.9,51.7 405.9,47.1 "/>
<polygon fill="#575250" points="386,46.3 386,47 382.5,47 382.5,49 385.8,49 385.8,49.7 382.5,49.7 382.5,51.9 386.1,51.9 
	386.1,52.6 381.7,52.6 381.7,46.3 "/>
<path fill="#FFCB13" d="M17.4,32c0-1-0.8-1.9-1.9-1.9c-1,0-1.9,0.8-1.9,1.9c0,1,0.8,1.9,1.9,1.9C16.6,33.9,17.4,33.1,17.4,32"/>
<path fill="#FFCB13" d="M31.7,31.1c1.1,0,1.9-0.9,1.9-1.9c0-1.1-0.9-1.9-1.9-1.9c-1.1,0-1.9,0.9-1.9,1.9
	C29.8,30.2,30.6,31.1,31.7,31.1"/>
<path fill="#FFCB13" d="M47.9,30.2c-1,0-1.9,0.8-1.9,1.9c0,1,0.8,1.9,1.9,1.9c1,0,1.9-0.8,1.9-1.9C49.7,31,48.9,30.2,47.9,30.2"/>
<polygon fill="#FFCB13" points="19.1,44.4 19.7,46.3 31.7,46.3 43.7,46.3 44.3,44.4 "/>
<path fill="#FFCB13" d="M44.5,43.7l2.6-9c-0.7-0.2-1.3-0.7-1.6-1.3c-1.6,1.4-6.6,6-12.6-1.6C32.6,31.9,32,32,31.7,32
	c-0.3,0-0.9,0-1.1-0.1c-6,7.6-11.1,3-12.6,1.6c-0.4,0.6-0.9,1.1-1.6,1.3l2.6,9H44.5z"/>
<path fill-rule="evenodd" clip-rule="evenodd" fill="#FFCB13" d="M31.4,11.5c0.2,0.6,0.4,1.1,0.5,1.6c0.1,0.3,0.2,0.5,0.3,0.8
	c0,0.1,0.1,0.2,0.2,0.2c0.8,0,1.5,0,2.3,0h0.1c0,0,0,0,0,0c-0.2,0.1-0.4,0.3-0.6,0.4c-0.4,0.3-0.9,0.7-1.3,1
	c-0.1,0.1-0.1,0.1-0.1,0.2c0.3,0.7,0.5,1.5,0.8,2.2c0,0,0,0.1,0.1,0.2c-0.4-0.3-0.8-0.5-1.1-0.7c-0.3-0.2-0.6-0.4-1-0.6
	c-0.1-0.1-0.2-0.1-0.3,0c-0.6,0.4-1.3,0.8-1.9,1.3c0,0-0.1,0.1-0.2,0.1c0.1-0.3,0.2-0.7,0.3-1c0.1-0.4,0.3-0.9,0.4-1.3
	c0-0.1,0-0.2-0.1-0.3c-0.6-0.4-1.2-0.9-1.8-1.3c0,0-0.1-0.1-0.2-0.1h0.3c0.7,0,1.4,0,2.1,0c0.1,0,0.2,0,0.2-0.2
	C30.8,13.1,31.1,12.3,31.4,11.5"/>
<path fill-rule="evenodd" clip-rule="evenodd" fill="#FFCB13" d="M40,14.2c0.1,0.4,0.3,0.8,0.4,1.2c0.1,0.2,0.1,0.4,0.2,0.6
	c0,0.1,0.1,0.1,0.2,0.1c0.5,0,1.1,0,1.6,0h0.1c0,0,0,0,0,0c-0.1,0.1-0.3,0.2-0.4,0.3c-0.3,0.2-0.6,0.5-1,0.7c-0.1,0-0.1,0.1-0.1,0.2
	c0.2,0.5,0.4,1.1,0.6,1.6c0,0,0,0.1,0,0.1c-0.3-0.2-0.6-0.4-0.8-0.5c-0.2-0.2-0.5-0.3-0.7-0.5C40.1,18,40,18,39.9,18
	c-0.5,0.3-0.9,0.6-1.4,0.9c0,0-0.1,0-0.1,0c0.1-0.2,0.2-0.5,0.2-0.7c0.1-0.3,0.2-0.6,0.3-0.9c0-0.1,0-0.1-0.1-0.2
	c-0.4-0.3-0.9-0.6-1.3-1c0,0-0.1-0.1-0.1-0.1h0.2c0.5,0,1,0,1.5,0c0.1,0,0.1,0,0.2-0.1C39.6,15.4,39.8,14.8,40,14.2"/>
<path fill-rule="evenodd" clip-rule="evenodd" fill="#FFCB13" d="M46.8,17.1c0.1,0.4,0.3,0.8,0.4,1.2c0.1,0.2,0.1,0.4,0.2,0.6
	c0,0.1,0.1,0.1,0.2,0.1c0.5,0,1.1,0,1.6,0h0.1c0,0,0,0,0,0c-0.1,0.1-0.3,0.2-0.4,0.3c-0.3,0.2-0.6,0.5-1,0.7c-0.1,0-0.1,0.1-0.1,0.2
	c0.2,0.5,0.4,1.1,0.6,1.6c0,0,0,0.1,0,0.1c-0.3-0.2-0.6-0.4-0.8-0.5c-0.2-0.2-0.5-0.3-0.7-0.5c-0.1-0.1-0.1-0.1-0.2,0
	c-0.5,0.3-0.9,0.6-1.4,0.9c0,0-0.1,0-0.1,0c0.1-0.2,0.2-0.5,0.2-0.7c0.1-0.3,0.2-0.6,0.3-0.9c0-0.1,0-0.1-0.1-0.2
	c-0.4-0.3-0.9-0.6-1.3-1c0,0-0.1-0.1-0.1-0.1h0.2c0.5,0,1,0,1.5,0c0.1,0,0.1,0,0.2-0.1C46.3,18.3,46.5,17.7,46.8,17.1"/>
<path fill-rule="evenodd" clip-rule="evenodd" fill="#FFCB13" d="M23.4,14.2c-0.1,0.4-0.3,0.8-0.4,1.2c-0.1,0.2-0.1,0.4-0.2,0.6
	c0,0.1-0.1,0.1-0.2,0.1c-0.5,0-1.1,0-1.6,0h-0.1c0,0,0,0,0,0c0.1,0.1,0.3,0.2,0.4,0.3c0.3,0.2,0.6,0.5,1,0.7c0.1,0,0.1,0.1,0.1,0.2
	c-0.2,0.5-0.4,1.1-0.6,1.6c0,0,0,0.1,0,0.1c0.3-0.2,0.6-0.4,0.8-0.5c0.2-0.2,0.5-0.3,0.7-0.5c0.1-0.1,0.1-0.1,0.2,0
	c0.5,0.3,0.9,0.6,1.4,0.9c0,0,0.1,0,0.1,0c-0.1-0.2-0.2-0.5-0.2-0.7c-0.1-0.3-0.2-0.6-0.3-0.9c0-0.1,0-0.1,0.1-0.2
	c0.4-0.3,0.9-0.6,1.3-1c0,0,0.1-0.1,0.1-0.1h-0.2c-0.5,0-1,0-1.5,0c-0.1,0-0.1,0-0.2-0.1C23.8,15.4,23.6,14.8,23.4,14.2"/>
<path fill-rule="evenodd" clip-rule="evenodd" fill="#FFCB13" d="M16.6,17.1c-0.1,0.4-0.3,0.8-0.4,1.2c-0.1,0.2-0.1,0.4-0.2,0.6
	C16,19,16,19,15.9,19c-0.5,0-1.1,0-1.6,0h-0.1c0,0,0,0,0,0c0.1,0.1,0.3,0.2,0.4,0.3c0.3,0.2,0.6,0.5,1,0.7c0.1,0,0.1,0.1,0.1,0.2
	c-0.2,0.5-0.4,1.1-0.6,1.6c0,0,0,0.1,0,0.1c0.3-0.2,0.6-0.4,0.8-0.5c0.2-0.2,0.5-0.3,0.7-0.5c0.1-0.1,0.1-0.1,0.2,0
	c0.5,0.3,0.9,0.6,1.4,0.9c0,0,0.1,0,0.1,0c-0.1-0.2-0.2-0.5-0.2-0.7c-0.1-0.3-0.2-0.6-0.3-0.9c0-0.1,0-0.1,0.1-0.2
	c0.4-0.3,0.9-0.6,1.3-1c0,0,0.1-0.1,0.1-0.1H19c-0.5,0-1,0-1.5,0c-0.1,0-0.1,0-0.2-0.1C17.1,18.3,16.9,17.7,16.6,17.1"/>
<path fill="#FFCB13" d="M31.4,62.8C14.1,62.8,0,48.7,0,31.4C0,14.1,14.1,0,31.4,0c17.3,0,31.4,14.1,31.4,31.4
	C62.8,48.7,48.7,62.8,31.4,62.8 M31.4,3.4c-15.4,0-28,12.6-28,28c0,15.4,12.6,28,28,28c15.4,0,28-12.6,28-28
	C59.4,15.9,46.8,3.4,31.4,3.4"/>
</svg>
