<?xml version="1.0" encoding="utf-8"?>
<!-- Generator: Adobe Illustrator 18.0.0, SVG Export Plug-In . SVG Version: 6.00 Build 0)  -->
<!DOCTYPE svg PUBLIC "-//W3C//DTD SVG 1.1//EN" "http://www.w3.org/Graphics/SVG/1.1/DTD/svg11.dtd">
<svg version="1.1" id="Camada_1" xmlns="http://www.w3.org/2000/svg" xmlns:xlink="http://www.w3.org/1999/xlink" x="0px" y="0px"
	 viewBox="0 0 258.3 62.8" enable-background="new 0 0 258.3 62.8" xml:space="preserve">
<g>
	<defs>
		<rect id="SVGID_1_" y="0" width="258.3" height="62.8"/>
	</defs>
	<clipPath id="SVGID_2_">
		<use xlink:href="#SVGID_1_"  overflow="visible"/>
	</clipPath>
	<path clip-path="url(#SVGID_2_)" fill-rule="evenodd" clip-rule="evenodd" fill="#007CB5" d="M107.2,33.6c0.5,0.1,0.9,0.1,1.3,0.2
		v2h-5.9v-2c0.5-0.1,1.1-0.1,1.8-0.2v-4.5c-1.6,0-3.2,0.1-4.8,0c-0.7-0.1-1.4-0.5-1.9-1c-1.8-1.5-2.4-5.5-1.4-8.2
		c0.8-2.2,2.8-3.5,5.6-3.4c1.4,0,2.9,0.3,4.3,0.5c0.8,0.1,1.1,0.6,1,1.4c0,3.9,0,7.8,0,11.7V33.6z M104.4,22.8c0-1,0-2,0-3
		c0-0.3-0.2-0.7-0.4-0.8c-1.9-1-4.5,0.1-5,2.2c-0.2,0.9-0.2,1.9-0.1,2.8c0.4,2.4,1.7,3.3,4.1,2.9c1-0.2,1.4-0.5,1.4-1.7
		C104.5,24.4,104.4,23.6,104.4,22.8"/>
	<path clip-path="url(#SVGID_2_)" fill-rule="evenodd" clip-rule="evenodd" fill="#007CB5" d="M74.6,26.9c0.5,0.1,0.9,0.2,1.3,0.3
		V29h-6v-1.9c0.5-0.1,0.9-0.2,1.5-0.3V14.2c-0.5-0.1-0.9,0-1.4,0v-1.9c3.1,0,6.1-0.3,9.1,0.1c2.8,0.3,4,3.2,3.3,6.7
		c-0.4,2.2-1.8,3.6-4,4c-1.2,0.2-2.4,0.2-3.8,0.4V26.9z M74.5,14.2c0,2,0,3.9,0,5.8c0,0.3,0,0.7,0.4,0.7c1.6,0,2.5-0.1,3.5-0.5
		c1-0.4,1-2,1-2.9c0-1.1-0.1-2.4-1.3-2.9c-0.3-0.1-0.6-0.2-0.8-0.2C76.2,14.2,75.5,14.2,74.5,14.2"/>
	<path clip-path="url(#SVGID_2_)" fill-rule="evenodd" clip-rule="evenodd" fill="#007CB5" d="M141,26.9c0.6,0.1,1,0.2,1.4,0.2v1.9
		h-5.8v-1.9c0.5-0.1,1-0.2,1.5-0.3v-8c-0.5-0.1-1-0.1-1.5-0.2v-2c1.5,0.3,3.1-0.6,4.5,0.5c0.1,0.1,0.4,0,0.6-0.1
		c0.4-0.1,0.8-0.3,1.2-0.4c3.7-1,5.7,0.5,5.7,4.4c0,1.4,0,2.8,0,4.2c0,1.1,0.1,2,1.6,1.6c0.1,0.6,0.2,1.1,0.3,1.7
		c-2.2,1.3-4.8,0.6-4.7-2.4c0.1-1.7,0-3.4,0-5c0-0.9,0-2.1-1.2-2.2c-1.1-0.1-2.3,0.3-3.4,0.5c-0.1,0-0.2,0.4-0.2,0.6
		c0,0.2,0,0.5,0,0.7V26.9z"/>
	<path clip-path="url(#SVGID_2_)" fill-rule="evenodd" clip-rule="evenodd" fill="#007CB5" d="M122.5,26.9c0.1,0.8,0.2,1.3,0.3,1.8
		c-1.8,0.9-3.2,0.7-4.3-0.5c-1.1,0.3-2.2,0.8-3.2,1c-3.1,0.7-5-0.8-5.1-4c-0.1-2.1,0-4.2,0-6.3c-0.6-0.1-1.1-0.1-1.6-0.2v-1.9h4.4
		v4.3c0,0.9,0,1.7,0,2.6c-0.2,3.5,1.7,3.8,4.5,2.7c0.3-0.1,0.6-0.5,0.6-0.8c0.1-1.8,0-3.5,0-5.3c0-0.5,0-1,0-1.5
		c-0.6-0.1-1-0.1-1.6-0.2v-1.9h4.4v6.7c0,0.7,0,1.4,0,2C120.9,26.6,121.1,27.4,122.5,26.9"/>
	<path clip-path="url(#SVGID_2_)" fill-rule="evenodd" clip-rule="evenodd" fill="#007CB5" d="M163.3,22.8c0,5.1-3.7,7.8-8.6,6.2
		c-0.3-0.1-0.6-0.2-0.9-0.4c-2.3-1.2-3.3-4.4-2.5-8c0.6-2.5,2.4-4,5.1-4.1C160.9,16.3,163.3,18.4,163.3,22.8 M160.3,22.9
		c-0.1-0.6-0.1-1.3-0.2-1.9c-0.4-1.6-1.4-2.4-3-2.3c-1.6,0-2.5,0.7-2.8,2.4c-0.1,0.6-0.2,1.3-0.2,1.9c0,2.8,1.1,4.2,3.1,4.2
		C159.2,27.2,160.3,25.8,160.3,22.9"/>
	<path clip-path="url(#SVGID_2_)" fill-rule="evenodd" clip-rule="evenodd" fill="#007CB5" d="M94.3,23.8h-8.2
		c0,1.3,0.4,2.4,1.5,2.8c1,0.4,2.1,0.5,3.2,0.6c1.1,0,2.2-0.2,3.3-0.3c0.1,0.6,0.2,1.2,0.3,1.9c-3,0.6-6,1.2-8.9-0.4
		c-2.6-1.4-2.7-4.1-2.4-6.6c0.4-4,3.3-6,7.2-5.2c2.2,0.4,3.4,1.9,3.8,4C94.2,21.6,94.2,22.6,94.3,23.8 M86.1,21.9h5.4
		c0-2.1-0.8-3.1-2.5-3.2C87,18.7,86.1,19.6,86.1,21.9"/>
	<path clip-path="url(#SVGID_2_)" fill-rule="evenodd" clip-rule="evenodd" fill="#007CB5" d="M134.6,23.8h-7.9
		c0.3,3.1,1.1,3.4,7.9,3.1c0.1,0.6,0.2,1.2,0.3,1.9c-2.8,0.6-5.5,1-8.2,0c-2.4-0.9-3.5-3.6-3.1-6.9c0.4-3.1,1.9-4.8,4.5-5.3
		C132.7,15.8,135.6,18.9,134.6,23.8 M126.7,21.9h5.4c-0.2-2.3-1-3.2-2.8-3.2C127.6,18.8,126.8,19.7,126.7,21.9"/>
	<path clip-path="url(#SVGID_2_)" fill-rule="evenodd" clip-rule="evenodd" fill="#007CB5" d="M198.5,14.7c-0.3,0.5-1,0.7-1.6,0.3
		c-0.5-0.3-0.7-1-0.3-1.5l1.1-1.7c0.3-0.5,1-0.7,1.5-0.3c0.5,0.3,0.7,1,0.3,1.5L198.5,14.7z"/>
	<path clip-path="url(#SVGID_2_)" fill-rule="evenodd" clip-rule="evenodd" fill="#007CB5" d="M237.3,17.2c0.9-0.2,1.9-0.7,3-0.7
		c3.1-0.2,4.9,1.3,5.2,4.4c0.1,1,0.1,2.1,0,3.1c-0.3,3.2-2.4,5.1-5.9,5.2c-0.8,0-1.6,0-2.5,0v4.3c0.5,0.1,1,0.1,1.5,0.2v2h-6v-2
		c0.5-0.1,0.9-0.1,1.5-0.2V18.8c-0.4,0-0.9-0.1-1.4-0.1v-2C234.1,16.9,235.8,16.2,237.3,17.2 M236.9,23.1c0,1,0,1.9,0,2.9
		c0,0.3,0.2,0.7,0.4,0.9c1.3,0.8,3.9,0.1,4.6-1.3c0.8-1.7,0.9-3.5,0.2-5.3c-0.5-1.3-1.8-1.7-3.3-1.4c-1.7,0.4-1.9,0.6-1.9,2.5
		C236.9,22,236.9,22.6,236.9,23.1"/>
	<path clip-path="url(#SVGID_2_)" fill-rule="evenodd" clip-rule="evenodd" fill="#007CB5" d="M175.7,26.8c0.5,0.1,0.9,0.2,1.3,0.3
		V29h-6v-1.9c0.5-0.1,0.9-0.2,1.5-0.3V14.2c-0.5-0.1-0.9,0-1.5,0v-1.9c3.1,0,6.1-0.3,9.1,0.1c2.8,0.3,4,3.2,3.3,6.7
		c-0.4,2.2-1.8,3.6-4,3.9c-1.2,0.2-2.4,0.2-3.8,0.4V26.8z M175.6,14.2c0,2,0,3.9,0,5.8c0,0.3,0,0.7,0.4,0.7c1.6,0,2.5-0.1,3.5-0.5
		c1-0.4,1-2,1-2.9c0-1.1-0.1-2.4-1.3-2.9c-0.3-0.1-0.6-0.2-0.8-0.2C177.3,14.1,176.6,14.2,175.6,14.2"/>
	<path clip-path="url(#SVGID_2_)" fill-rule="evenodd" clip-rule="evenodd" fill="#007CB5" d="M205.9,26.8c0.5,0.1,0.9,0.1,1.4,0.2
		V29h-5.8v-1.9c0.4-0.1,0.9-0.2,1.4-0.3v-8c-0.4-0.1-0.9-0.1-1.4-0.2v-2c1.5,0.3,3.1-0.6,4.5,0.5c0.1,0.1,0.4-0.1,0.6-0.1
		c0.4-0.1,0.8-0.3,1.2-0.4c3.7-0.9,5.6,0.5,5.7,4.3c0,1.5,0,3,0,4.5c0,1.4,0,1.4,1.5,1.4c0.1,0.5,0.2,1.1,0.4,1.6
		c-2.7,1.5-4.6,0.5-4.7-2.5c-0.1-1.7,0-3.5-0.1-5.2c0-0.9-0.1-2-1.2-2c-1.1,0-2.3,0.3-3.4,0.6c-0.1,0-0.2,0.4-0.2,0.6
		C205.9,22.4,205.9,24.6,205.9,26.8"/>
	<path clip-path="url(#SVGID_2_)" fill-rule="evenodd" clip-rule="evenodd" fill="#007CB5" d="M257.8,23.7h-8.3c0.1,2.1,1,3.1,3,3.3
		c1.6,0.1,3.2,0,5,0c0.1,0.4,0.2,1,0.3,1.7c-2.8,0.6-5.6,1.1-8.4-0.1c-2.3-1-3.3-3.6-2.9-6.9c0.5-4,3.3-6,7.3-5.2
		c1.7,0.4,3,1.4,3.5,3.1C257.5,20.9,257.6,22.2,257.8,23.7 M254.8,21.9c0-2.1-0.8-3.1-2.5-3.2c-1.9-0.1-2.8,0.9-2.9,3.2H254.8z"/>
	<path clip-path="url(#SVGID_2_)" fill-rule="evenodd" clip-rule="evenodd" fill="#007CB5" d="M225.8,16.5v4.3h-2.3
		c-0.1-0.6-0.1-1.3-0.2-1.9c-3.4-0.8-5,0.4-5,3.8c0,3.3,1.2,4.5,4.6,4.4c0.9,0,1.8-0.2,2.9-0.3c0.1,0.7,0.2,1.3,0.4,2
		c-2.6,0.5-5,0.8-7.4-0.1c-0.3-0.1-0.5-0.2-0.7-0.3c-2.2-1.3-3-4.2-2.4-7.8c0.4-2.3,2-3.8,4.5-4.1C222,16.4,223.8,16.5,225.8,16.5"
		/>
	<path clip-path="url(#SVGID_2_)" fill-rule="evenodd" clip-rule="evenodd" fill="#007CB5" d="M186.5,18.8c-0.5,0-0.9-0.1-1.5-0.1
		v-2c1.5,0.2,3.1-0.5,4.5,0.4c1.4-0.2,2.7-0.5,4-0.6c0.8-0.1,1.2,0.3,1.1,1.2c-0.1,0.9,0,1.8,0,2.8h-2.4c0-0.6-0.1-1.1-0.1-1.6
		c-2-0.3-2.7,0.3-2.7,2.2v5.8c0.6,0.1,1,0.1,1.6,0.2V29H185v-1.9c0.5-0.1,0.9-0.1,1.5-0.2V18.8z"/>
	<path clip-path="url(#SVGID_2_)" fill-rule="evenodd" clip-rule="evenodd" fill="#007CB5" d="M200.3,27.1c-1.5,0-1.6-0.1-1.6-1.5
		c0-2.4,0-4.9,0-7.3v-1.4H196v4.4c0,1.9,0,3.8,0.1,5.6c0.1,1.7,1.2,2.6,2.9,2.4c0.6-0.1,1.1-0.2,1.7-0.4
		C200.5,28.2,200.4,27.7,200.3,27.1"/>
	<path clip-path="url(#SVGID_2_)" fill-rule="evenodd" clip-rule="evenodd" fill="#007CB5" d="M232,27.1c-1.5,0-1.6-0.1-1.6-1.5
		c0-2.4,0-4.9,0-7.3v-1.4h-2.7v4.4c0,1.9,0,3.8,0.1,5.6c0.1,1.7,1.2,2.6,2.9,2.4c0.6-0.1,1.1-0.2,1.7-0.4
		C232.2,28.2,232.1,27.7,232,27.1"/>
	<path clip-path="url(#SVGID_2_)" fill-rule="evenodd" clip-rule="evenodd" fill="#007CB5" d="M230.5,13.7c0-0.8-0.7-1.5-1.5-1.5
		c-0.8,0-1.5,0.7-1.5,1.5c0,0.8,0.7,1.5,1.5,1.5C229.8,15.2,230.5,14.5,230.5,13.7"/>
	<path clip-path="url(#SVGID_2_)" fill-rule="evenodd" clip-rule="evenodd" fill="#004F87" d="M142.4,44.5c-0.5,0-1,0-1.5-0.1v-1.9
		h4.2c0,0.3,0.1,0.5,0.1,0.9c2.2-1,4.5-2.1,6.4-0.2c1.7-0.3,3.1-0.8,4.6-0.9c2.2-0.1,3.5,1.3,3.6,3.5c0.1,1.8,0,3.6,0,5.3
		c0,1.5,0.1,1.5,1.6,1.5c0.1,0.5,0.2,1.1,0.3,1.8c-0.6,0.1-1.2,0.3-1.8,0.4c-1.7,0.2-2.7-0.6-2.8-2.3c-0.1-1.7-0.1-3.3-0.1-5
		c0-0.5,0-1-0.1-1.5c-0.2-1-0.8-1.6-1.8-1.5c-0.9,0.1-1.9,0.4-2.7,0.6v7.5c0.5,0,1,0,1.6,0.1v1.9h-4.3c0-1.1,0-2.2,0-3.2
		c0-1.7,0-3.4-0.1-5.1c-0.1-1.3-0.8-1.8-2.1-1.8c-0.1,0-0.2,0-0.4,0c-1.8,0.2-2.2,0.6-2.2,2.4v5.7h1.5v2h-5.8v-1.9
		c0.5,0,0.9,0,1.5-0.1V44.5z"/>
	<path clip-path="url(#SVGID_2_)" fill-rule="evenodd" clip-rule="evenodd" fill="#004F87" d="M114.6,42.8v-2.9
		c-0.5,0-1-0.1-1.5-0.1v-1.9h4.3v0.9c0,4.8,0,9.5,0,14.3c0,0.7-0.2,1-0.8,1.2c-2,0.5-4,0.8-6.1,0.4c-2.5-0.5-3.8-1.8-4.1-4.4
		c-0.2-1.4-0.2-2.8,0.1-4.2c0.6-3,3.1-4.4,6.3-3.7C113.4,42.5,114,42.7,114.6,42.8 M114.7,48.7c0-1,0-2.1,0-3.1
		c0-0.2-0.1-0.6-0.3-0.7c-1.7-1.3-4.7-0.3-5.1,1.8c-0.3,1.2-0.2,2.6,0,3.8c0.2,1.3,1.1,2.1,2.4,2.2c0.8,0.1,1.6,0,2.5-0.1
		c0.2,0,0.5-0.4,0.5-0.7C114.7,50.8,114.7,49.8,114.7,48.7"/>
	<path clip-path="url(#SVGID_2_)" fill-rule="evenodd" clip-rule="evenodd" fill="#004F87" d="M80.9,38.5v3.7h-2.3V40
		c-1.5,0.1-2.9-0.1-4.3,0.1c-0.7,0.1-1.2,0.7-1.3,1.5c-0.1,0.8,0,1.6,0.8,2.1c0.8,0.4,1.6,0.7,2.5,1c0.9,0.4,1.9,0.6,2.8,1.1
		c2.1,1.1,2.4,3,2.2,5.2c-0.2,1.9-1.4,3.1-3.2,3.6c-2.7,0.7-5.4,0.3-8.1-0.1v-4h2.4c0,0.5,0,1,0,1.5c0,0.6,0.2,0.8,0.7,0.8
		c1,0,2,0.1,2.9,0c1.3-0.1,2.2-0.8,2.4-1.9c0.3-1.2-0.1-2.5-1.2-3.1c-0.8-0.4-1.6-0.7-2.4-1c-0.5-0.2-1.1-0.4-1.7-0.6
		c-2.4-0.9-3.4-2.7-2.9-5.2c0.3-1.5,1.5-2.7,3.4-3C76.1,37.6,78.5,38,80.9,38.5"/>
	<path clip-path="url(#SVGID_2_)" fill-rule="evenodd" clip-rule="evenodd" fill="#004F87" d="M139.2,52.7c0.1,0.5,0.2,1,0.3,1.6
		c-1.6,0.9-3.3,0.7-4.2-0.4c-1.6,0.4-3,0.9-4.5,1c-2.2,0.2-3.6-1.1-3.7-3.3c-0.1-1.9-0.1-3.9-0.1-5.8c0-0.4,0-0.7,0-1.1
		c-0.6,0-1-0.1-1.6-0.1v-1.9h4.3v0.9c0,2.2,0,4.4,0,6.6c0,2,1,2.8,3,2.5c2-0.4,2.1-0.5,2.1-2.5v-5.5c-0.5,0-1-0.1-1.6-0.1v-1.9h4.3
		v1c0,2.5,0,5,0,7.5C137.6,52.5,137.6,52.5,139.2,52.7"/>
	<path clip-path="url(#SVGID_2_)" fill-rule="evenodd" clip-rule="evenodd" fill="#004F87" d="M87.2,42.4h5.7v2h-5.7
		c0,2.2-0.1,4.3,0,6.4c0.1,1.2,0.7,1.6,1.9,1.6c0.3,0,0.5,0,0.9,0v2c-3.5,0.9-5.5-0.7-5.6-3.6c0-2.1,0-4.1,0-6.3c-0.5,0-1,0-1.5-0.1
		v-2h1.5v-2.6h2.7V42.4z"/>
	<path clip-path="url(#SVGID_2_)" fill-rule="evenodd" clip-rule="evenodd" fill="#004F87" d="M104.6,52.6c-1.5-0.1-1.5-0.1-1.5-1.6
		c0-1,0-2,0-2.9v-5.6h-4.3v1.9c0.5,0,1,0,1.6,0.1c0,2.3,0,4.6,0,6.9c0,0.2-0.2,0.4-0.4,0.5c-0.4,0.2-0.8,0.4-1.3,0.5
		c-2.4,0.6-3.4-0.2-3.4-2.7c0-2.4,0-4.8,0-7.3h-2.7v2h0c0,0.7,0,1.4,0,2c0,1.7,0,3.4,0.1,5.1c0.2,2.1,1.5,3.3,3.5,3.2
		c1.5-0.1,3-0.6,4.7-1c0.9,1.1,2.3,1.3,4.2,0.4C104.8,53.7,104.7,53.2,104.6,52.6"/>
	<path clip-path="url(#SVGID_2_)" fill-rule="evenodd" clip-rule="evenodd" fill="#004F87" d="M124.2,52.6c-1.5,0-1.5-0.1-1.6-1.5
		c0-2.4,0-4.9,0-7.3v-1.4H120v4.3c0,1.9,0,3.7,0.1,5.6c0.1,1.7,1.2,2.5,2.8,2.3c0.6-0.1,1.1-0.2,1.7-0.4
		C124.5,53.7,124.4,53.1,124.2,52.6"/>
	<path clip-path="url(#SVGID_2_)" fill-rule="evenodd" clip-rule="evenodd" fill="#004F87" d="M122.8,39.3c0-0.8-0.7-1.5-1.5-1.5
		c-0.8,0-1.5,0.7-1.5,1.5c0,0.8,0.7,1.5,1.5,1.5C122.1,40.8,122.8,40.1,122.8,39.3"/>
	<polygon clip-path="url(#SVGID_2_)" fill="#575250" points="175.2,44.2 175.2,44.6 173.3,44.6 173.3,45.7 175.1,45.7 175.1,46.1 
		173.3,46.1 173.3,47.3 175.2,47.3 175.2,47.6 172.9,47.6 172.9,44.2 	"/>
	<path clip-path="url(#SVGID_2_)" fill="#575250" d="M179.3,44.2c0.5,0,0.9,0.1,1.2,0.4c0.3,0.3,0.4,0.7,0.4,1.2
		c0,0.3,0,0.5-0.1,0.8c-0.1,0.2-0.2,0.4-0.3,0.6c-0.1,0.1-0.3,0.3-0.5,0.3c-0.2,0.1-0.5,0.1-0.7,0.1h-1.2v-3.4H179.3z M179.4,47.3
		c0.1,0,0.1,0,0.2,0c0.1,0,0.2,0,0.2-0.1c0.1,0,0.2-0.1,0.3-0.1c0.1-0.1,0.2-0.1,0.2-0.2c0.1-0.1,0.1-0.2,0.2-0.4
		c0-0.1,0.1-0.3,0.1-0.5c0-0.2,0-0.4-0.1-0.5c0-0.2-0.1-0.3-0.2-0.4c-0.1-0.1-0.2-0.2-0.4-0.3c-0.1-0.1-0.3-0.1-0.5-0.1h-0.8v2.6
		H179.4z"/>
	<path clip-path="url(#SVGID_2_)" fill="#575250" d="M186.2,47.4c-0.2,0.2-0.6,0.3-1,0.3c-0.4,0-0.8-0.1-1-0.3
		c-0.2-0.2-0.4-0.5-0.4-1v-2.2h0.5v2.2c0,0.3,0.1,0.5,0.2,0.7c0.2,0.2,0.4,0.2,0.7,0.2c0.3,0,0.5-0.1,0.7-0.2
		c0.2-0.2,0.2-0.4,0.2-0.7v-2.2h0.4v2.2C186.6,46.8,186.5,47.2,186.2,47.4"/>
	<path clip-path="url(#SVGID_2_)" fill="#575250" d="M191.7,44.7c-0.2-0.1-0.4-0.2-0.6-0.2c-0.2,0-0.4,0-0.5,0.1
		c-0.1,0.1-0.3,0.2-0.4,0.3c-0.1,0.1-0.2,0.3-0.2,0.4c0,0.2-0.1,0.3-0.1,0.5c0,0.2,0,0.4,0.1,0.5c0,0.2,0.1,0.3,0.2,0.4
		c0.1,0.1,0.2,0.2,0.4,0.3c0.1,0.1,0.3,0.1,0.5,0.1c0.1,0,0.3,0,0.4-0.1c0.1-0.1,0.2-0.1,0.3-0.2c0.1-0.1,0.2-0.2,0.2-0.3
		c0-0.1,0.1-0.2,0.1-0.4h0.5c0,0.4-0.2,0.8-0.4,1c-0.3,0.2-0.6,0.4-1,0.4c-0.3,0-0.5,0-0.7-0.1c-0.2-0.1-0.4-0.2-0.5-0.4
		c-0.1-0.2-0.2-0.3-0.3-0.6c-0.1-0.2-0.1-0.4-0.1-0.7c0-0.2,0-0.5,0.1-0.7s0.2-0.4,0.3-0.6c0.1-0.2,0.3-0.3,0.5-0.4
		c0.2-0.1,0.4-0.1,0.7-0.1c0.2,0,0.3,0,0.5,0.1c0.2,0,0.3,0.1,0.4,0.2c0.1,0.1,0.2,0.2,0.3,0.3c0.1,0.1,0.1,0.3,0.2,0.5h-0.5
		C192,45,191.9,44.8,191.7,44.7"/>
	<path clip-path="url(#SVGID_2_)" fill="#575250" d="M196.9,44.2l1.3,3.4h-0.5l-0.4-1h-1.4l-0.4,1h-0.5l1.3-3.4H196.9z M197.2,46.2
		l-0.6-1.6h0l-0.6,1.6H197.2z"/>
	<path clip-path="url(#SVGID_2_)" fill="#575250" d="M203,44.7c-0.2-0.1-0.4-0.2-0.6-0.2c-0.2,0-0.4,0-0.5,0.1
		c-0.1,0.1-0.3,0.2-0.4,0.3c-0.1,0.1-0.2,0.3-0.2,0.4c0,0.2-0.1,0.3-0.1,0.5c0,0.2,0,0.4,0.1,0.5c0,0.2,0.1,0.3,0.2,0.4
		c0.1,0.1,0.2,0.2,0.4,0.3c0.1,0.1,0.3,0.1,0.5,0.1c0.1,0,0.3,0,0.4-0.1c0.1-0.1,0.2-0.1,0.3-0.2c0.1-0.1,0.1-0.2,0.2-0.3
		c0-0.1,0.1-0.2,0.1-0.4h0.4c0,0.4-0.2,0.7-0.4,1c-0.2,0.2-0.6,0.4-1,0.4l-0.1,0.2l0,0c0,0,0.1,0,0.2,0c0.1,0,0.2,0,0.3,0.1
		c0.1,0.1,0.1,0.1,0.1,0.3c0,0.1,0,0.1-0.1,0.2c0,0.1-0.1,0.1-0.1,0.1c-0.1,0-0.1,0.1-0.2,0.1c-0.1,0-0.1,0-0.2,0
		c-0.1,0-0.1,0-0.2,0c-0.1,0-0.1,0-0.2-0.1l0.1-0.2c0,0,0.1,0,0.1,0c0.1,0,0.1,0,0.2,0c0,0,0.1,0,0.1,0c0,0,0.1,0,0.1,0
		c0,0,0.1,0,0.1,0c0,0,0,0,0-0.1c0,0,0-0.1-0.1-0.1c0,0-0.1,0-0.2,0c0,0-0.1,0-0.1,0c0,0-0.1,0-0.1,0L202,48l0.2-0.3
		c-0.2,0-0.4-0.1-0.6-0.2c-0.2-0.1-0.3-0.2-0.4-0.4c-0.1-0.2-0.2-0.3-0.3-0.5c-0.1-0.2-0.1-0.4-0.1-0.7c0-0.2,0-0.5,0.1-0.7
		c0.1-0.2,0.2-0.4,0.3-0.6c0.1-0.2,0.3-0.3,0.5-0.4c0.2-0.1,0.4-0.1,0.7-0.1c0.2,0,0.3,0,0.5,0.1c0.2,0,0.3,0.1,0.4,0.2
		c0.1,0.1,0.2,0.2,0.3,0.3c0.1,0.1,0.1,0.3,0.2,0.5h-0.5C203.3,45,203.2,44.8,203,44.7"/>
	<path clip-path="url(#SVGID_2_)" fill="#575250" d="M208.2,44.2l1.3,3.4H209l-0.4-1h-1.4l-0.4,1h-0.5l1.3-3.4H208.2z M208.6,43.8
		c0,0-0.1,0.1-0.1,0.1c-0.1,0-0.1,0-0.2,0c0,0-0.1,0-0.1,0c-0.1,0-0.1,0-0.2-0.1c-0.1,0-0.1,0-0.2-0.1c-0.1,0-0.1,0-0.2,0
		c0,0-0.1,0-0.2,0.1c-0.1,0-0.1,0.1-0.1,0.1h-0.2c0-0.1,0-0.1,0.1-0.2c0-0.1,0.1-0.1,0.1-0.2c0,0,0.1-0.1,0.1-0.1c0.1,0,0.1,0,0.2,0
		c0.1,0,0.1,0,0.2,0c0.1,0,0.1,0,0.2,0.1c0.1,0,0.1,0,0.2,0.1c0,0,0.1,0,0.2,0c0.1,0,0.1,0,0.1-0.1c0,0,0.1-0.1,0.1-0.1h0.2
		C208.7,43.6,208.7,43.7,208.6,43.8 M208.5,46.2l-0.6-1.6h0l-0.6,1.6H208.5z"/>
	<path clip-path="url(#SVGID_2_)" fill="#575250" d="M212.1,45.3c0.1-0.2,0.2-0.4,0.3-0.6c0.1-0.2,0.3-0.3,0.5-0.4
		c0.2-0.1,0.4-0.1,0.7-0.1c0.3,0,0.5,0,0.7,0.1c0.2,0.1,0.4,0.2,0.5,0.4c0.1,0.2,0.2,0.4,0.3,0.6c0.1,0.2,0.1,0.4,0.1,0.7
		c0,0.2,0,0.5-0.1,0.7c-0.1,0.2-0.2,0.4-0.3,0.6c-0.1,0.2-0.3,0.3-0.5,0.4c-0.2,0.1-0.4,0.1-0.7,0.1c-0.3,0-0.5,0-0.7-0.1
		c-0.2-0.1-0.4-0.2-0.5-0.4c-0.1-0.2-0.2-0.4-0.3-0.6c-0.1-0.2-0.1-0.4-0.1-0.7C212,45.7,212,45.5,212.1,45.3 M212.5,46.4
		c0,0.2,0.1,0.3,0.2,0.4c0.1,0.1,0.2,0.2,0.4,0.3c0.1,0.1,0.3,0.1,0.5,0.1c0.2,0,0.4,0,0.5-0.1c0.1-0.1,0.3-0.2,0.4-0.3
		c0.1-0.1,0.2-0.3,0.2-0.4c0-0.2,0.1-0.3,0.1-0.5c0-0.2,0-0.3-0.1-0.5c0-0.2-0.1-0.3-0.2-0.4c-0.1-0.1-0.2-0.2-0.4-0.3
		c-0.1-0.1-0.3-0.1-0.5-0.1c-0.2,0-0.4,0-0.5,0.1c-0.1,0.1-0.3,0.2-0.4,0.3c-0.1,0.1-0.2,0.3-0.2,0.4c0,0.2-0.1,0.3-0.1,0.5
		C212.5,46.1,212.5,46.3,212.5,46.4"/>
	<rect x="221.9" y="44.2" clip-path="url(#SVGID_2_)" fill="#575250" width="0.5" height="3.4"/>
	<polygon clip-path="url(#SVGID_2_)" fill="#575250" points="225.9,44.2 227.7,47 227.7,47 227.7,44.2 228.2,44.2 228.2,47.6 
		227.7,47.6 225.9,44.9 225.9,44.9 225.9,47.6 225.5,47.6 225.5,44.2 	"/>
	<polygon clip-path="url(#SVGID_2_)" fill="#575250" points="233.5,44.2 233.5,44.6 231.7,44.6 231.7,45.7 233.3,45.7 233.3,46.1 
		231.7,46.1 231.7,47.6 231.3,47.6 231.3,44.2 	"/>
	<path clip-path="url(#SVGID_2_)" fill="#575250" d="M237.5,44.2l1.3,3.4h-0.5l-0.4-1h-1.4l-0.4,1h-0.5l1.3-3.4H237.5z M237.8,46.2
		l-0.6-1.6h0l-0.6,1.6H237.8z"/>
	<polygon clip-path="url(#SVGID_2_)" fill="#575250" points="242,44.2 243.8,47 243.8,47 243.8,44.2 244.3,44.2 244.3,47.6 
		243.8,47.6 242,44.9 242,44.9 242,47.6 241.6,47.6 241.6,44.2 	"/>
	<polygon clip-path="url(#SVGID_2_)" fill="#575250" points="247,44.6 247,44.2 249.7,44.2 249.7,44.6 248.6,44.6 248.6,47.6 
		248.1,47.6 248.1,44.6 	"/>
	<rect x="252.5" y="44.2" clip-path="url(#SVGID_2_)" fill="#575250" width="0.5" height="3.4"/>
	<polygon clip-path="url(#SVGID_2_)" fill="#575250" points="256.5,44.2 256.5,47.3 258.3,47.3 258.3,47.6 256.1,47.6 256.1,44.2 	
		"/>
	<polygon clip-path="url(#SVGID_2_)" fill="#575250" points="174.7,52.8 174.7,53.1 173,53.1 173,54.2 174.5,54.2 174.5,54.6 
		173,54.6 173,56.2 172.5,56.2 172.5,52.8 	"/>
	<path clip-path="url(#SVGID_2_)" fill="#575250" d="M180,55.9c-0.2,0.2-0.6,0.3-1,0.3c-0.4,0-0.8-0.1-1-0.3c-0.2-0.2-0.4-0.5-0.4-1
		v-2.2h0.5v2.2c0,0.3,0.1,0.5,0.2,0.7c0.2,0.2,0.4,0.2,0.7,0.2c0.3,0,0.5-0.1,0.7-0.2c0.1-0.2,0.2-0.4,0.2-0.7v-2.2h0.5v2.2
		C180.3,55.4,180.2,55.7,180,55.9"/>
	<polygon clip-path="url(#SVGID_2_)" fill="#575250" points="183.9,52.8 185.7,55.5 185.7,55.5 185.7,52.8 186.1,52.8 186.1,56.2 
		185.6,56.2 183.8,53.4 183.8,53.4 183.8,56.2 183.4,56.2 183.4,52.8 	"/>
	<path clip-path="url(#SVGID_2_)" fill="#575250" d="M190.4,52.8c0.5,0,0.9,0.1,1.2,0.4c0.3,0.3,0.4,0.7,0.4,1.2
		c0,0.3,0,0.5-0.1,0.8c-0.1,0.2-0.2,0.4-0.3,0.6c-0.1,0.2-0.3,0.3-0.5,0.3c-0.2,0.1-0.5,0.1-0.7,0.1h-1.2v-3.4H190.4z M190.4,55.8
		c0.1,0,0.1,0,0.2,0c0.1,0,0.2,0,0.2-0.1c0.1,0,0.2-0.1,0.3-0.1c0.1-0.1,0.2-0.1,0.2-0.2c0.1-0.1,0.1-0.2,0.2-0.4
		c0-0.1,0.1-0.3,0.1-0.5c0-0.2,0-0.4-0.1-0.5c0-0.2-0.1-0.3-0.2-0.4c-0.1-0.1-0.2-0.2-0.3-0.3c-0.1-0.1-0.3-0.1-0.5-0.1h-0.8v2.6
		H190.4z"/>
	<path clip-path="url(#SVGID_2_)" fill="#575250" d="M196.4,52.8l1.3,3.4h-0.5l-0.4-1h-1.4l-0.4,1h-0.5l1.3-3.4H196.4z M196.7,54.8
		l-0.6-1.6h0l-0.6,1.6H196.7z"/>
	<polygon clip-path="url(#SVGID_2_)" fill="#575250" points="201,52.8 202.1,55.6 203.2,52.8 203.8,52.8 203.8,56.2 203.3,56.2 
		203.3,53.3 203.3,53.3 202.3,56.2 201.9,56.2 200.8,53.3 200.8,53.3 200.8,56.2 200.4,56.2 200.4,52.8 	"/>
	<polygon clip-path="url(#SVGID_2_)" fill="#575250" points="209.2,52.8 209.2,53.1 207.3,53.1 207.3,54.2 209.1,54.2 209.1,54.6 
		207.3,54.6 207.3,55.8 209.3,55.8 209.3,56.2 206.9,56.2 206.9,52.8 	"/>
	<polygon clip-path="url(#SVGID_2_)" fill="#575250" points="212.6,52.8 214.4,55.5 214.4,55.5 214.4,52.8 214.9,52.8 214.9,56.2 
		214.4,56.2 212.6,53.4 212.6,53.4 212.6,56.2 212.2,56.2 212.2,52.8 	"/>
	<polygon clip-path="url(#SVGID_2_)" fill="#575250" points="217.6,53.1 217.6,52.8 220.3,52.8 220.3,53.1 219.2,53.1 219.2,56.2 
		218.7,56.2 218.7,53.1 	"/>
	<path clip-path="url(#SVGID_2_)" fill="#575250" d="M224.1,52.8l1.3,3.4h-0.5l-0.4-1h-1.4l-0.4,1h-0.5l1.3-3.4H224.1z M224.4,54.8
		l-0.6-1.6h0l-0.6,1.6H224.4z"/>
	<polygon clip-path="url(#SVGID_2_)" fill="#575250" points="228.5,52.8 228.5,55.8 230.3,55.8 230.3,56.2 228.1,56.2 228.1,52.8 	
		"/>
	<polygon clip-path="url(#SVGID_2_)" fill="#575250" points="238.1,53.2 238.1,52.8 237.3,52.8 236.8,52.8 236,52.8 236,53.2 
		236.8,53.2 236.8,55.7 236,55.7 236,56.1 236.8,56.1 236.8,56.2 237.3,56.2 237.3,56.1 238.1,56.1 238.1,55.7 237.3,55.7 
		237.3,53.2 	"/>
	<polygon clip-path="url(#SVGID_2_)" fill="#575250" points="254.4,53.2 254.4,52.8 253.5,52.8 253.1,52.8 252.2,52.8 252.2,53.2 
		253.1,53.2 253.1,55.7 252.2,55.7 252.2,56.1 253.1,56.1 253.1,56.2 253.5,56.2 253.5,56.1 254.4,56.1 254.4,55.7 253.5,55.7 
		253.5,53.2 	"/>
	<polygon clip-path="url(#SVGID_2_)" fill="#575250" points="258,53.2 258,52.8 257.1,52.8 256.7,52.8 255.8,52.8 255.8,53.2 
		256.7,53.2 256.7,55.7 255.8,55.7 255.8,56.1 256.7,56.1 256.7,56.2 257.1,56.2 257.1,56.1 258,56.1 258,55.7 257.1,55.7 
		257.1,53.2 	"/>
	<polygon clip-path="url(#SVGID_2_)" fill="#575250" points="246.4,52.8 246.4,53.1 244.5,53.1 244.5,54.2 246.3,54.2 246.3,54.6 
		244.5,54.6 244.5,55.8 246.5,55.8 246.5,56.2 244.1,56.2 244.1,52.8 	"/>
	<path clip-path="url(#SVGID_2_)" fill="#FFCB13" d="M17.4,32c0-1-0.8-1.9-1.9-1.9c-1,0-1.9,0.8-1.9,1.9c0,1,0.8,1.9,1.9,1.9
		C16.6,33.9,17.4,33.1,17.4,32"/>
	<path clip-path="url(#SVGID_2_)" fill="#FFCB13" d="M31.7,31.1c1.1,0,1.9-0.9,1.9-1.9c0-1.1-0.9-1.9-1.9-1.9
		c-1.1,0-1.9,0.9-1.9,1.9C29.8,30.2,30.6,31.1,31.7,31.1"/>
	<path clip-path="url(#SVGID_2_)" fill="#FFCB13" d="M47.9,30.2c-1,0-1.9,0.8-1.9,1.9c0,1,0.8,1.9,1.9,1.9c1,0,1.9-0.8,1.9-1.9
		C49.7,31,48.9,30.2,47.9,30.2"/>
	<polygon clip-path="url(#SVGID_2_)" fill="#FFCB13" points="19.1,44.4 19.7,46.3 31.7,46.3 43.7,46.3 44.3,44.4 	"/>
	<path clip-path="url(#SVGID_2_)" fill="#FFCB13" d="M44.5,43.7l2.6-9c-0.7-0.2-1.3-0.7-1.6-1.3c-1.6,1.4-6.6,6-12.6-1.6
		C32.6,31.9,32,32,31.7,32c-0.3,0-0.9,0-1.1-0.1c-6,7.6-11.1,3-12.6,1.6c-0.4,0.6-0.9,1.1-1.6,1.3l2.6,9H44.5z"/>
	<path clip-path="url(#SVGID_2_)" fill-rule="evenodd" clip-rule="evenodd" fill="#FFCB13" d="M31.4,11.5c0.2,0.6,0.4,1.1,0.5,1.6
		c0.1,0.3,0.2,0.5,0.3,0.8c0,0.1,0.1,0.2,0.2,0.2c0.8,0,1.5,0,2.3,0h0.1c0,0,0,0,0,0c-0.2,0.1-0.4,0.3-0.6,0.4
		c-0.4,0.3-0.9,0.7-1.3,1c-0.1,0.1-0.1,0.1-0.1,0.2c0.3,0.7,0.5,1.5,0.8,2.2c0,0,0,0.1,0.1,0.2c-0.4-0.3-0.8-0.5-1.1-0.7
		c-0.3-0.2-0.6-0.4-1-0.6c-0.1-0.1-0.2-0.1-0.3,0c-0.6,0.4-1.3,0.8-1.9,1.3c0,0-0.1,0.1-0.2,0.1c0.1-0.3,0.2-0.7,0.3-1
		c0.1-0.4,0.3-0.9,0.4-1.3c0-0.1,0-0.2-0.1-0.3c-0.6-0.4-1.2-0.9-1.8-1.3c0,0-0.1-0.1-0.2-0.1h0.3c0.7,0,1.4,0,2.1,0
		c0.1,0,0.2,0,0.2-0.2C30.8,13.1,31.1,12.3,31.4,11.5"/>
	<path clip-path="url(#SVGID_2_)" fill-rule="evenodd" clip-rule="evenodd" fill="#FFCB13" d="M40,14.2c0.1,0.4,0.3,0.8,0.4,1.2
		c0.1,0.2,0.1,0.4,0.2,0.6c0,0.1,0.1,0.1,0.2,0.1c0.5,0,1.1,0,1.6,0h0.1c0,0,0,0,0,0c-0.1,0.1-0.3,0.2-0.4,0.3
		c-0.3,0.2-0.6,0.5-1,0.7c-0.1,0-0.1,0.1-0.1,0.2c0.2,0.5,0.4,1.1,0.6,1.6c0,0,0,0.1,0,0.1c-0.3-0.2-0.6-0.4-0.8-0.5
		c-0.2-0.2-0.5-0.3-0.7-0.5C40.1,18,40,18,39.9,18c-0.5,0.3-0.9,0.6-1.4,0.9c0,0-0.1,0-0.1,0c0.1-0.2,0.2-0.5,0.2-0.7
		c0.1-0.3,0.2-0.6,0.3-0.9c0-0.1,0-0.1-0.1-0.2c-0.4-0.3-0.9-0.6-1.3-1c0,0-0.1-0.1-0.1-0.1h0.2c0.5,0,1,0,1.5,0
		c0.1,0,0.1,0,0.2-0.1C39.6,15.4,39.8,14.8,40,14.2"/>
	<path clip-path="url(#SVGID_2_)" fill-rule="evenodd" clip-rule="evenodd" fill="#FFCB13" d="M46.8,17.1c0.1,0.4,0.3,0.8,0.4,1.2
		c0.1,0.2,0.1,0.4,0.2,0.6c0,0.1,0.1,0.1,0.2,0.1c0.5,0,1.1,0,1.6,0h0.1c0,0,0,0,0,0c-0.1,0.1-0.3,0.2-0.4,0.3
		c-0.3,0.2-0.6,0.5-1,0.7c-0.1,0-0.1,0.1-0.1,0.2c0.2,0.5,0.4,1.1,0.6,1.6c0,0,0,0.1,0,0.1c-0.3-0.2-0.6-0.4-0.8-0.5
		c-0.2-0.2-0.5-0.3-0.7-0.5c-0.1-0.1-0.1-0.1-0.2,0c-0.5,0.3-0.9,0.6-1.4,0.9c0,0-0.1,0-0.1,0c0.1-0.2,0.2-0.5,0.2-0.7
		c0.1-0.3,0.2-0.6,0.3-0.9c0-0.1,0-0.1-0.1-0.2c-0.4-0.3-0.9-0.6-1.3-1c0,0-0.1-0.1-0.1-0.1h0.2c0.5,0,1,0,1.5,0
		c0.1,0,0.1,0,0.2-0.1C46.3,18.3,46.5,17.7,46.8,17.1"/>
	<path clip-path="url(#SVGID_2_)" fill-rule="evenodd" clip-rule="evenodd" fill="#FFCB13" d="M23.4,14.2c-0.1,0.4-0.3,0.8-0.4,1.2
		c-0.1,0.2-0.1,0.4-0.2,0.6c0,0.1-0.1,0.1-0.2,0.1c-0.5,0-1.1,0-1.6,0h-0.1c0,0,0,0,0,0c0.1,0.1,0.3,0.2,0.4,0.3
		c0.3,0.2,0.6,0.5,1,0.7c0.1,0,0.1,0.1,0.1,0.2c-0.2,0.5-0.4,1.1-0.6,1.6c0,0,0,0.1,0,0.1c0.3-0.2,0.6-0.4,0.8-0.5
		c0.2-0.2,0.5-0.3,0.7-0.5c0.1-0.1,0.1-0.1,0.2,0c0.5,0.3,0.9,0.6,1.4,0.9c0,0,0.1,0,0.1,0c-0.1-0.2-0.2-0.5-0.2-0.7
		c-0.1-0.3-0.2-0.6-0.3-0.9c0-0.1,0-0.1,0.1-0.2c0.4-0.3,0.9-0.6,1.3-1c0,0,0.1-0.1,0.1-0.1h-0.2c-0.5,0-1,0-1.5,0
		c-0.1,0-0.1,0-0.2-0.1C23.8,15.4,23.6,14.8,23.4,14.2"/>
	<path clip-path="url(#SVGID_2_)" fill-rule="evenodd" clip-rule="evenodd" fill="#FFCB13" d="M16.6,17.1c-0.1,0.4-0.3,0.8-0.4,1.2
		c-0.1,0.2-0.1,0.4-0.2,0.6C16,19,16,19,15.9,19c-0.5,0-1.1,0-1.6,0h-0.1c0,0,0,0,0,0c0.1,0.1,0.3,0.2,0.4,0.3
		c0.3,0.2,0.6,0.5,1,0.7c0.1,0,0.1,0.1,0.1,0.2c-0.2,0.5-0.4,1.1-0.6,1.6c0,0,0,0.1,0,0.1c0.3-0.2,0.6-0.4,0.8-0.5
		c0.2-0.2,0.5-0.3,0.7-0.5c0.1-0.1,0.1-0.1,0.2,0c0.5,0.3,0.9,0.6,1.4,0.9c0,0,0.1,0,0.1,0c-0.1-0.2-0.2-0.5-0.2-0.7
		c-0.1-0.3-0.2-0.6-0.3-0.9c0-0.1,0-0.1,0.1-0.2c0.4-0.3,0.9-0.6,1.3-1c0,0,0.1-0.1,0.1-0.1H19c-0.5,0-1,0-1.5,0
		c-0.1,0-0.1,0-0.2-0.1C17.1,18.3,16.9,17.7,16.6,17.1"/>
	<path clip-path="url(#SVGID_2_)" fill="#FFCB13" d="M31.4,62.8C14.1,62.8,0,48.7,0,31.4C0,14.1,14.1,0,31.4,0
		c17.3,0,31.4,14.1,31.4,31.4C62.8,48.7,48.7,62.8,31.4,62.8 M31.4,3.4c-15.4,0-28,12.6-28,28c0,15.4,12.6,28,28,28
		c15.4,0,28-12.6,28-28C59.4,15.9,46.8,3.4,31.4,3.4"/>
</g>
</svg>
