<?xml version="1.0" encoding="utf-8"?>
<!-- Generator: Adobe Illustrator 18.0.0, SVG Export Plug-In . SVG Version: 6.00 Build 0)  -->
<!DOCTYPE svg PUBLIC "-//W3C//DTD SVG 1.1//EN" "http://www.w3.org/Graphics/SVG/1.1/DTD/svg11.dtd">
<svg version="1.1" id="Camada_1" xmlns="http://www.w3.org/2000/svg" xmlns:xlink="http://www.w3.org/1999/xlink" x="0px" y="0px"
	 viewBox="0 0 40 40" enable-background="new 0 0 40 40" xml:space="preserve">
<g id="Camada_1">
	<g>
		<g>
			<g>
				<g>
					<path fill="#186199" d="M9.9,14H30v3H9.9V14z"/>
				</g>
			</g>
		</g>
		<g>
			<g>
				<g>
					<path fill="#186199" d="M9.9,20H30v3H9.9V20z"/>
				</g>
			</g>
		</g>
		<g>
			<g>
				<g>
					<path fill="#186199" d="M9.9,26.1H30v3H9.9V26.1z"/>
				</g>
			</g>
		</g>
		<g>
			<g>
				<path fill="#1C8CBC" d="M14.7,8.6c0-0.8-0.1-1.7-0.1-2.4l0,0c-0.2,0.7-0.4,1.4-0.7,2.1l-1,2.7h-0.5l-0.9-2.7
					c-0.3-0.8-0.5-1.5-0.7-2.2l0,0c0,0.7-0.1,1.6-0.1,2.5L10.6,11H9.8l0.4-5.6h0.9l1,2.7c0.2,0.7,0.4,1.3,0.6,1.9l0,0
					c0.1-0.6,0.3-1.2,0.6-1.9l1-2.7h0.9l0.3,5.6h-0.7L14.7,8.6z"/>
				<path fill="#1C8CBC" d="M19.5,8.4h-2.2v2h2.4V11h-3.2V5.5h3v0.6h-2.3v1.8h2.2v0.5H19.5z"/>
				<path fill="#1C8CBC" d="M20.5,11.1V5.5h0.8l1.8,2.8c0.4,0.7,0.7,1.3,1,1.8l0,0c0-0.7-0.1-1.4-0.1-2.3V5.5h0.7v5.6H24l-1.8-2.8
					c-0.4-0.6-0.8-1.3-1-1.9l0,0c0,0.7,0.1,1.4,0.1,2.3v2.4H20.5z"/>
				<path fill="#1C8CBC" d="M26.6,5.5v3.3c0,1.3,0.6,1.8,1.3,1.8c0.8,0,1.4-0.5,1.4-1.8V5.5H30v3.3c0,1.7-0.9,2.4-2.1,2.4
					c-1.1,0-2-0.7-2-2.4V5.5H26.6z"/>
			</g>
		</g>
	</g>
</g>
</svg>
